<?xml version="1.0" encoding="UTF-8"?>
<svg xmlns="http://www.w3.org/2000/svg" width="32" height="32" viewBox="0 0 32 32" fill="none">
  <path d="M28.1214 9.30702C26.988 8.05369 25.0947 7.42702 22.348 7.42702H22.028V7.37369C22.028 5.13369 22.028 2.36035 17.0147 2.36035H14.988C9.97468 2.36035 9.97468 5.14702 9.97468 7.37369V7.44035H9.65468C6.89468 7.44035 5.01469 8.06702 3.88135 9.32035C2.56135 10.787 2.60135 12.7604 2.73469 14.107L2.74802 14.2004L2.85881 15.3636C2.87307 15.5134 2.95391 15.6488 3.07967 15.7314C3.38665 15.9329 3.9773 16.3159 4.32135 16.507C4.50802 16.627 4.70802 16.7337 4.90802 16.8404C7.18802 18.0937 9.69468 18.9337 12.2414 19.347C12.3614 20.6004 12.908 22.067 15.828 22.067C18.748 22.067 19.3214 20.6137 19.4147 19.3204C22.1347 18.8804 24.7614 17.9337 27.1347 16.547C27.2147 16.507 27.268 16.467 27.3347 16.427C27.8845 16.1162 28.4558 15.7304 28.9717 15.3561C29.0844 15.2743 29.1568 15.1483 29.1722 15.0098L29.2014 14.747L29.268 14.1204C29.2814 14.0404 29.2814 13.9737 29.2947 13.8804C29.4014 12.5337 29.3747 10.6937 28.1214 9.30702ZM17.4547 18.4404C17.4547 19.8537 17.4547 20.067 15.8147 20.067C14.1747 20.067 14.1747 19.8137 14.1747 18.4537V16.7737H17.4547V18.4404ZM11.8814 7.42702V7.37369C11.8814 5.10702 11.8814 4.26702 14.988 4.26702H17.0147C20.1214 4.26702 20.1214 5.12035 20.1214 7.37369V7.44035H11.8814V7.42702Z" fill="#E9A900"></path>
  <path d="M28.1039 18.1828C28.4569 18.0133 28.8621 18.2942 28.8267 18.6841L28.3211 24.2536C28.0411 26.9203 26.9478 29.6403 21.0811 29.6403H10.9211C5.05443 29.6403 3.96109 26.9203 3.68109 24.267L3.20038 18.9791C3.16534 18.5937 3.56202 18.3135 3.91415 18.4741C5.37179 19.1393 8.49468 20.5171 10.3236 20.9782C10.4883 21.0197 10.6222 21.1374 10.6911 21.2927C11.4828 23.0767 13.2533 24.027 15.8278 24.027C18.3768 24.027 20.1705 23.0401 20.9643 21.2529C21.0333 21.0975 21.1677 20.9798 21.3325 20.9381C23.2721 20.4477 26.585 18.9119 28.1039 18.1828Z" fill="#E9A900"></path>
</svg>
