<?xml version="1.0" encoding="UTF-8"?>
<svg xmlns="http://www.w3.org/2000/svg" width="24" height="24" viewBox="0 0 24 24" fill="none">
  <g clip-path="url(#clip0_631_16820)">
    <mask id="mask0_631_16820" style="mask-type:luminance" maskUnits="userSpaceOnUse" x="0" y="0" width="24" height="24">
      <path d="M23.2476 12.0005C23.2476 14.9846 22.0622 17.8465 19.9521 19.9565C17.8421 22.0666 14.9802 23.252 11.9961 23.252C9.01205 23.252 6.15018 22.0666 4.04012 19.9565C1.93005 17.8465 0.744629 14.9846 0.744629 12.0005C0.744629 9.01644 1.93005 6.15458 4.04012 4.04451C6.15018 1.93445 9.01205 0.749023 11.9961 0.749023C14.9802 0.749023 17.8421 1.93445 19.9521 4.04451C22.0622 6.15458 23.2476 9.01644 23.2476 12.0005Z" fill="white"></path>
    </mask>
    <g mask="url(#mask0_631_16820)">
      <mask id="mask1_631_16820" style="mask-type:luminance" maskUnits="userSpaceOnUse" x="0" y="0" width="24" height="24">
        <path d="M0.75 0.75H23.25V23.25H0.75V0.75Z" fill="white"></path>
      </mask>
      <g mask="url(#mask1_631_16820)">
        <path d="M0.75 0.75H23.25V23.25H0.75V0.75Z" fill="#2B4896"></path>
        <path d="M10.6958 10.7197L-1.33496 24.0645H1.02051V24.8101L12.3188 12.1333L10.6958 10.7197Z" fill="white"></path>
        <path d="M-0.598633 25.8219L11.0345 12.8662L10.1475 12.9532V12.9122L-1.14062 25.3297L-0.598633 25.8219Z" fill="#E32D3C"></path>
        <path d="M23.1929 -0.858398L11.1621 12.4863H13.5176V13.2319L24.8628 0.648926L23.1929 -0.858398Z" fill="white"></path>
        <path d="M23.6836 -0.680664L11.9883 12.188H12.9375V12.229L24.2256 -0.188477L23.6836 -0.680664Z" fill="#E32D3C"></path>
        <path d="M10.0403 13.5957L-1.28698 -0.173304L1.04751 -0.0673835L1.08083 -0.806467L11.7627 12.1766L10.0403 13.5957Z" fill="white"></path>
        <path d="M10.5371 13.446L-0.476783 0.161465L0.463796 0.20416L0.465628 0.163495L11.0962 12.9824L10.5371 13.446Z" fill="#E32D3C"></path>
        <path d="M10.125 0.75H13.875V23.25H10.125V0.75Z" fill="white"></path>
        <path d="M13.8047 11.1602L25.8354 24.5049H23.48V25.2505L12.1348 12.6675L13.8047 11.1602Z" fill="white"></path>
        <path d="M13.314 11.3379L25.0093 24.2065H24.0601V24.2476L12.772 11.8301L13.314 11.3379Z" fill="#E32D3C"></path>
        <path d="M23.25 10.125V13.875L0.75 13.875V10.125L23.25 10.125Z" fill="white"></path>
        <path d="M10.875 0.75H13.125V23.25H10.875V0.75Z" fill="#E32D3C"></path>
        <path d="M23.25 10.875V13.125L0.75 13.125V10.875L23.25 10.875Z" fill="#E32D3C"></path>
      </g>
    </g>
  </g>
  <defs>
    <clipPath id="clip0_631_16820">
      <rect width="24" height="24" fill="white"></rect>
    </clipPath>
  </defs>
</svg>
