<?xml version="1.0" encoding="UTF-8"?>
<svg xmlns="http://www.w3.org/2000/svg" width="24" height="24" viewBox="0 0 24 24" fill="none">
  <path fill-rule="evenodd" clip-rule="evenodd" d="M22.5 12C22.5 6.201 17.799 1.5 12 1.5C6.201 1.5 1.5 6.201 1.5 12C1.5 17.799 6.201 22.5 12 22.5C17.799 22.5 22.5 17.799 22.5 12Z" fill="#E92B2B"></path>
  <path fill-rule="evenodd" clip-rule="evenodd" d="M16.875 2.6979C15.4182 1.93285 13.7596 1.5 12 1.5C10.2404 1.5 8.58178 1.93285 7.125 2.6979V21.3021C8.58178 22.0672 10.2404 22.5 12 22.5C13.7596 22.5 15.4182 22.0672 16.875 21.3021V2.6979Z" fill="#FBFBFB"></path>
  <path fill-rule="evenodd" clip-rule="evenodd" d="M11.3872 15.7499C11.3458 15.7499 11.3122 15.7164 11.3122 15.6749V14.436C11.3122 14.3946 11.2786 14.361 11.2372 14.361H9.55406C9.49575 14.361 9.45975 14.2975 9.4897 14.2475L10.1541 13.1396C10.1763 13.1026 10.1627 13.0545 10.1245 13.0346L8.05889 11.9571C7.99664 11.9246 8.00916 11.8321 8.07778 11.8173L9.09258 11.5986C9.13223 11.5901 9.15792 11.5515 9.15051 11.5116L8.93859 10.3701C8.92645 10.3048 8.99911 10.2571 9.05423 10.2942L10.7818 11.4576C10.8416 11.4978 10.9182 11.4388 10.8945 11.3707L10.2417 9.49499C10.2219 9.43813 10.2738 9.38225 10.332 9.39796L11.1697 9.62361C11.203 9.63257 11.238 9.61775 11.2548 9.58766L11.9342 8.3676C11.9628 8.31627 12.0367 8.31627 12.0652 8.3676L12.7447 9.58766C12.7614 9.61775 12.7965 9.63257 12.8297 9.62361L13.6674 9.39796C13.7256 9.38225 13.7776 9.43813 13.7578 9.49499L13.105 11.3707C13.0813 11.4388 13.1579 11.4978 13.2177 11.4576L14.9452 10.2942C15.0004 10.2571 15.073 10.3048 15.0608 10.3701L14.849 11.5116C14.8416 11.5515 14.8672 11.5901 14.9069 11.5986L15.9217 11.8173C15.9903 11.8321 16.0028 11.9246 15.9406 11.9571L13.875 13.0346C13.8367 13.0545 13.8232 13.1026 13.8454 13.1396L14.5097 14.2475C14.5397 14.2975 14.5037 14.361 14.4454 14.361H12.7622C12.7208 14.361 12.6872 14.3946 12.6872 14.436V15.6749C12.6872 15.7164 12.6537 15.7499 12.6122 15.7499H11.3872Z" fill="#E92B2B"></path>
</svg>
