<?xml version="1.0" encoding="UTF-8"?>
<svg xmlns="http://www.w3.org/2000/svg" width="32" height="32" viewBox="0 0 32 32" fill="none">
  <path d="M29.3346 29.333H2.66797C2.1213 29.333 1.66797 28.8797 1.66797 28.333C1.66797 27.7863 2.1213 27.333 2.66797 27.333H29.3346C29.8813 27.333 30.3346 27.7863 30.3346 28.333C30.3346 28.8797 29.8813 29.333 29.3346 29.333Z" fill="#E9A900"></path>
  <path d="M13 5.33366V29.3337H19V5.33366C19 3.86699 18.4 2.66699 16.6 2.66699H15.4C13.6 2.66699 13 3.86699 13 5.33366Z" fill="#E9A900"></path>
  <path d="M4 13.3337V29.3337H9.33333V13.3337C9.33333 11.867 8.8 10.667 7.2 10.667H6.13333C4.53333 10.667 4 11.867 4 13.3337Z" fill="#E9A900"></path>
  <path d="M22.668 19.9997V29.333H28.0013V19.9997C28.0013 18.533 27.468 17.333 25.868 17.333H24.8013C23.2013 17.333 22.668 18.533 22.668 19.9997Z" fill="#E9A900"></path>
</svg>
