<?xml version="1.0" encoding="UTF-8"?>
<svg xmlns="http://www.w3.org/2000/svg" width="20" height="20" viewBox="0 0 20 20" fill="none">
  <path d="M9.99935 1.66699C5.40768 1.66699 1.66602 5.40866 1.66602 10.0003C1.66602 14.592 5.40768 18.3337 9.99935 18.3337C14.591 18.3337 18.3327 14.592 18.3327 10.0003C18.3327 5.40866 14.591 1.66699 9.99935 1.66699ZM13.6243 12.9753C13.5077 13.1753 13.2993 13.2837 13.0827 13.2837C12.9743 13.2837 12.866 13.2587 12.766 13.192L10.1827 11.6503C9.54102 11.267 9.06602 10.4253 9.06602 9.68366V6.26699C9.06602 5.92533 9.34935 5.64199 9.69102 5.64199C10.0327 5.64199 10.316 5.92533 10.316 6.26699V9.68366C10.316 9.98366 10.566 10.4253 10.8243 10.5753L13.4077 12.117C13.7077 12.292 13.8077 12.6753 13.6243 12.9753Z" fill="#E9A900"></path>
</svg>
