<?xml version="1.0" encoding="UTF-8"?>
<svg xmlns="http://www.w3.org/2000/svg" width="36" height="36" viewBox="0 0 36 36" fill="none">
  <path d="M33 31.8748H31.125V16.4998C31.125 12.8698 29.13 10.8748 25.5 10.8748H19.125V9.02979C19.995 9.23979 20.865 9.35979 21.75 9.35979C23.16 9.35979 24.57 9.08979 25.92 8.54979C26.34 8.38479 26.625 7.96479 26.625 7.49979V2.99979C26.625 2.62479 26.445 2.27979 26.13 2.06979C25.815 1.85979 25.425 1.81479 25.08 1.94979C22.935 2.80479 20.565 2.80479 18.42 1.94979C18.075 1.81479 17.685 1.85979 17.37 2.06979C17.055 2.27979 16.875 2.62479 16.875 2.99979V7.49979V10.8748H10.5C6.87 10.8748 4.875 12.8698 4.875 16.4998V31.8748H3C2.385 31.8748 1.875 32.3848 1.875 32.9998C1.875 33.6148 2.385 34.1248 3 34.1248H6H30H33C33.615 34.1248 34.125 33.6148 34.125 32.9998C34.125 32.3848 33.615 31.8748 33 31.8748ZM10.86 31.8748H7.125V19.1248H10.86V31.8748ZM16.86 31.8748H13.11V19.1248H16.86V31.8748ZM22.86 31.8748H19.11V19.1248H22.86V31.8748ZM28.875 31.8748H25.11V19.1248H28.875V31.8748Z" fill="currentColor"></path>
</svg>
