<?xml version="1.0" encoding="UTF-8"?>
<svg xmlns="http://www.w3.org/2000/svg" width="36" height="36" viewBox="0 0 36 36" fill="none">
  <path d="M12.1499 31.8315C10.0651 28.8563 8.83862 25.2365 8.83862 21.3281C8.83862 16.2665 12.9395 12.1641 17.998 12.1641C23.0566 12.1641 27.1575 16.2665 27.1575 21.3281" stroke="currentColor" stroke-width="2" stroke-linecap="round" stroke-linejoin="round"></path>
  <path d="M12.1501 31.8315C10.0653 28.8563 8.83887 25.2365 8.83887 21.3281C8.83887 16.2665 12.9398 12.1641 17.9983 12.1641C23.0568 12.1641 27.1577 16.2665 27.1577 21.3281" stroke="currentColor" stroke-width="2" stroke-linecap="round" stroke-linejoin="round"></path>
  <path d="M27.6542 30.4677C27.4893 30.4768 27.3274 30.4921 27.1609 30.4921C22.1024 30.4921 18.0015 26.3897 18.0015 21.3281" stroke="currentColor" stroke-width="2" stroke-linecap="round" stroke-linejoin="round"></path>
  <path d="M27.6542 30.4677C27.4893 30.4768 27.3274 30.4921 27.1609 30.4921C22.1024 30.4921 18.0015 26.3897 18.0015 21.3281" stroke="currentColor" stroke-width="2" stroke-linecap="round" stroke-linejoin="round"></path>
  <path d="M19.9041 32.9999C16.0125 30.573 13.4206 26.2537 13.4206 21.328C13.4206 18.7972 15.4718 16.746 18.0011 16.746C20.5303 16.746 22.5815 18.7972 22.5815 21.328C22.5815 23.8588 24.6327 25.91 27.162 25.91C29.6913 25.91 31.7425 23.8588 31.7425 21.328C31.7425 13.7357 25.5904 7.58203 18.0026 7.58203C10.4148 7.58203 4.2627 13.7357 4.2627 21.328C4.2627 23.0203 4.45208 24.6683 4.80032 26.2567" stroke="currentColor" stroke-width="2" stroke-linecap="round" stroke-linejoin="round"></path>
  <path d="M19.9041 32.9999C16.0125 30.573 13.4206 26.2537 13.4206 21.328C13.4206 18.7972 15.4718 16.746 18.0011 16.746C20.5303 16.746 22.5815 18.7972 22.5815 21.328C22.5815 23.8588 24.6327 25.91 27.162 25.91C29.6913 25.91 31.7425 23.8588 31.7425 21.328C31.7425 13.7357 25.5904 7.58203 18.0026 7.58203C10.4148 7.58203 4.2627 13.7357 4.2627 21.328C4.2627 23.0203 4.45208 24.6683 4.80032 26.2567" stroke="currentColor" stroke-width="2" stroke-linecap="round" stroke-linejoin="round"></path>
  <path d="M30.7886 8.7947C27.6652 5.24671 23.0985 3 18.0003 3C12.902 3 8.33531 5.24671 5.21191 8.7947" stroke="currentColor" stroke-width="2" stroke-linecap="round" stroke-linejoin="round"></path>
  <path d="M30.7886 8.7947C27.6652 5.24671 23.0985 3 18.0003 3C12.902 3 8.33531 5.24671 5.21191 8.7947" stroke="currentColor" stroke-width="2" stroke-linecap="round" stroke-linejoin="round"></path>
</svg>
