<?xml version="1.0" encoding="UTF-8"?>
<svg xmlns="http://www.w3.org/2000/svg" width="32" height="32" viewBox="0 0 32 32" fill="none">
  <path d="M16.9036 26.6093C17.2699 26.6945 17.3034 27.1743 16.9466 27.2932L14.84 27.9866C9.54663 29.6932 6.75997 28.2666 5.03997 22.9732L3.3333 17.7066C1.62663 12.4132 3.03997 9.61323 8.3333 7.90656L9.37063 7.56303C9.77349 7.42961 10.1612 7.832 10.0388 8.23834C9.92673 8.6103 9.82162 9.00638 9.71997 9.42656L8.4133 15.0132C6.94663 21.2932 9.0933 24.7599 15.3733 26.2532L16.9036 26.6093Z" fill="#E9A900"></path>
  <path d="M22.8934 4.27969L20.6667 3.75969C16.2134 2.70635 13.5601 3.57302 12.0001 6.79969C11.6001 7.61302 11.2801 8.59969 11.0134 9.73302L9.70674 15.3197C8.40008 20.893 10.1201 23.6397 15.6801 24.9597L17.9201 25.493C18.6934 25.6797 19.4134 25.7997 20.0801 25.853C24.2401 26.253 26.4534 24.3064 27.5734 19.493L28.8801 13.9197C30.1867 8.34635 28.4801 5.58635 22.8934 4.27969ZM20.3867 17.773C20.2667 18.2264 19.8667 18.5197 19.4134 18.5197C19.3334 18.5197 19.2534 18.5064 19.1601 18.493L15.2801 17.5064C14.7467 17.373 14.4267 16.8264 14.5601 16.293C14.6934 15.7597 15.2401 15.4397 15.7734 15.573L19.6534 16.5597C20.2001 16.693 20.5201 17.2397 20.3867 17.773ZM24.2934 13.2664C24.1734 13.7197 23.7734 14.013 23.3201 14.013C23.2401 14.013 23.1601 13.9997 23.0667 13.9864L16.6001 12.3464C16.0667 12.213 15.7467 11.6664 15.8801 11.133C16.0134 10.5997 16.5601 10.2797 17.0934 10.413L23.5601 12.053C24.1067 12.173 24.4267 12.7197 24.2934 13.2664Z" fill="#E9A900"></path>
</svg>
