<?xml version="1.0" encoding="UTF-8"?>
<svg xmlns="http://www.w3.org/2000/svg" width="32" height="32" viewBox="0 0 32 32" fill="none">
  <path d="M23.3734 10.3603C23.2801 10.347 23.1867 10.347 23.0934 10.3603C21.0267 10.2937 19.3867 8.60033 19.3867 6.52033C19.3867 4.40033 21.1067 2.66699 23.2401 2.66699C25.3601 2.66699 27.0934 4.38699 27.0934 6.52033C27.0801 8.60033 25.4401 10.2937 23.3734 10.3603Z" fill="#E9A900"></path>
  <path d="M27.72 19.5996C26.2266 20.5996 24.1333 20.9729 22.2 20.7196C22.7066 19.6262 22.9733 18.4129 22.9866 17.1329C22.9866 15.7996 22.6933 14.5329 22.1333 13.4262C24.1066 13.1596 26.2 13.5329 27.7066 14.5329C29.8133 15.9196 29.8133 18.1996 27.72 19.5996Z" fill="#E9A900"></path>
  <path d="M8.58655 10.3603C8.67988 10.347 8.77322 10.347 8.86655 10.3603C10.9332 10.2937 12.5732 8.60033 12.5732 6.52033C12.5732 4.38699 10.8532 2.66699 8.71988 2.66699C6.59988 2.66699 4.87988 4.38699 4.87988 6.52033C4.87988 8.60033 6.51988 10.2937 8.58655 10.3603Z" fill="#E9A900"></path>
  <path d="M8.73349 17.1331C8.73349 18.4265 9.01349 19.6531 9.52016 20.7598C7.64016 20.9598 5.68016 20.5598 4.24016 19.6131C2.13349 18.2131 2.13349 15.9331 4.24016 14.5331C5.66682 13.5731 7.68016 13.1865 9.57349 13.3998C9.02682 14.5198 8.73349 15.7865 8.73349 17.1331Z" fill="#E9A900"></path>
  <path d="M16.1599 21.16C16.0532 21.1467 15.9332 21.1467 15.8132 21.16C13.3599 21.08 11.3999 19.0667 11.3999 16.5867C11.4132 14.0533 13.4532 12 15.9999 12C18.5332 12 20.5866 14.0533 20.5866 16.5867C20.5732 19.0667 18.6266 21.08 16.1599 21.16Z" fill="#E9A900"></path>
  <path d="M11.8269 23.9195C9.81356 25.2662 9.81356 27.4795 11.8269 28.8129C14.1202 30.3462 17.8802 30.3462 20.1736 28.8129C22.1869 27.4662 22.1869 25.2529 20.1736 23.9195C17.8936 22.3862 14.1336 22.3862 11.8269 23.9195Z" fill="#E9A900"></path>
</svg>
