<?xml version="1.0" encoding="UTF-8"?>
<svg xmlns="http://www.w3.org/2000/svg" width="32" height="32" viewBox="0 0 32 32" fill="none">
  <path d="M11.9998 2.66699C8.5065 2.66699 5.6665 5.50699 5.6665 9.00033C5.6665 12.427 8.3465 15.2003 11.8398 15.3203C11.9465 15.307 12.0532 15.307 12.1332 15.3203C12.1598 15.3203 12.1732 15.3203 12.1998 15.3203C12.2132 15.3203 12.2132 15.3203 12.2265 15.3203C15.6398 15.2003 18.3198 12.427 18.3332 9.00033C18.3332 5.50699 15.4932 2.66699 11.9998 2.66699Z" fill="#E9A900"></path>
  <path d="M18.7733 18.8668C15.0533 16.3868 8.98661 16.3868 5.23995 18.8668C3.54661 20.0002 2.61328 21.5335 2.61328 23.1735C2.61328 24.8135 3.54661 26.3335 5.22661 27.4535C7.09328 28.7068 9.54661 29.3335 11.9999 29.3335C14.4533 29.3335 16.9066 28.7068 18.7733 27.4535C20.4533 26.3202 21.3866 24.8002 21.3866 23.1468C21.3733 21.5068 20.4533 19.9868 18.7733 18.8668Z" fill="#E9A900"></path>
  <path d="M26.6535 9.78713C26.8668 12.3738 25.0268 14.6405 22.4801 14.9471C22.4668 14.9471 22.4668 14.9471 22.4535 14.9471H22.4135C22.3335 14.9471 22.2535 14.9471 22.1868 14.9738C20.8935 15.0405 19.7068 14.6271 18.8135 13.8671C20.1868 12.6405 20.9735 10.8005 20.8135 8.80046C20.7201 7.72046 20.3468 6.73379 19.7868 5.89379C20.2935 5.64046 20.8801 5.48046 21.4801 5.42713C24.0935 5.20046 26.4268 7.14713 26.6535 9.78713Z" fill="#E9A900"></path>
  <path d="M29.32 22.1199C29.2133 23.4132 28.3867 24.5332 27 25.2932C25.6667 26.0265 23.9867 26.3732 22.32 26.3332C23.28 25.4665 23.84 24.3865 23.9467 23.2399C24.08 21.5865 23.2933 19.9999 21.72 18.7332C20.8267 18.0265 19.7867 17.4665 18.6533 17.0532C21.6 16.1999 25.3067 16.7732 27.5867 18.6132C28.8133 19.5999 29.44 20.8399 29.32 22.1199Z" fill="#E9A900"></path>
</svg>
