<?xml version="1.0" encoding="UTF-8"?>
<svg xmlns="http://www.w3.org/2000/svg" width="32" height="32" viewBox="0 0 32 32" fill="none">
  <path d="M24.6401 16.3333C25.0135 16.3333 25.3335 16.0133 25.3068 15.64C24.9468 10.8 20.9201 7 16.0001 7C11.0801 7 7.05345 10.8 6.69345 15.64C6.66678 16.0133 6.98678 16.3333 7.36012 16.3333H24.6401Z" fill="#E9A900"></path>
  <path d="M29.3335 17.333H29.2268C28.4935 17.333 27.8935 16.733 27.8935 15.9997C27.8935 15.2663 28.4935 14.6663 29.2268 14.6663C29.9602 14.6663 30.6135 15.2663 30.6135 15.9997C30.6135 16.733 30.0668 17.333 29.3335 17.333ZM2.7735 17.333H2.66683C1.9335 17.333 1.3335 16.733 1.3335 15.9997C1.3335 15.2663 1.9335 14.6663 2.66683 14.6663C3.40016 14.6663 4.0535 15.2663 4.0535 15.9997C4.0535 16.733 3.50683 17.333 2.7735 17.333ZM25.3468 7.98634C25.0002 7.98634 24.6668 7.85301 24.4002 7.59967C23.8802 7.07967 23.8802 6.23967 24.4002 5.71967L24.5735 5.54634C25.0935 5.02634 25.9335 5.02634 26.4535 5.54634C26.9735 6.06634 26.9735 6.90634 26.4535 7.42634L26.2802 7.59967C26.0268 7.85301 25.6935 7.98634 25.3468 7.98634ZM6.6535 7.98634C6.30683 7.98634 5.9735 7.85301 5.70683 7.59967L5.5335 7.41301C5.0135 6.89301 5.0135 6.05301 5.5335 5.53301C6.0535 5.01301 6.8935 5.01301 7.4135 5.53301L7.58683 5.70634C8.10683 6.22634 8.10683 7.06634 7.58683 7.58634C7.3335 7.85301 6.98683 7.98634 6.6535 7.98634ZM16.0002 4.05301C15.2668 4.05301 14.6668 3.50634 14.6668 2.77301V2.66634C14.6668 1.93301 15.2668 1.33301 16.0002 1.33301C16.7335 1.33301 17.3335 1.93301 17.3335 2.66634C17.3335 3.39967 16.7335 4.05301 16.0002 4.05301Z" fill="#E9A900"></path>
  <path d="M26.6668 21H5.3335C4.78683 21 4.3335 20.5467 4.3335 20C4.3335 19.4533 4.78683 19 5.3335 19H26.6668C27.2135 19 27.6668 19.4533 27.6668 20C27.6668 20.5467 27.2135 21 26.6668 21Z" fill="#E9A900"></path>
  <path d="M24 25H8C7.45333 25 7 24.5467 7 24C7 23.4533 7.45333 23 8 23H24C24.5467 23 25 23.4533 25 24C25 24.5467 24.5467 25 24 25Z" fill="#E9A900"></path>
  <path d="M20 29H12C11.4533 29 11 28.5467 11 28C11 27.4533 11.4533 27 12 27H20C20.5467 27 21 27.4533 21 28C21 28.5467 20.5467 29 20 29Z" fill="#E9A900"></path>
</svg>
