<?xml version="1.0" encoding="UTF-8"?>
<svg xmlns="http://www.w3.org/2000/svg" width="32" height="32" viewBox="0 0 32 32" fill="none">
  <path d="M27.4935 11.2663C26.0935 5.10634 20.7201 2.33301 16.0001 2.33301C16.0001 2.33301 16.0001 2.33301 15.9868 2.33301C11.2801 2.33301 5.89346 5.09301 4.49346 11.253C2.93346 18.133 7.14679 23.9597 10.9601 27.6263C12.3735 28.9863 14.1868 29.6663 16.0001 29.6663C17.8135 29.6663 19.6268 28.9863 21.0268 27.6263C24.8401 23.9597 29.0535 18.1463 27.4935 11.2663ZM16.0001 17.9463C13.6801 17.9463 11.8001 16.0663 11.8001 13.7463C11.8001 11.4263 13.6801 9.54634 16.0001 9.54634C18.3201 9.54634 20.2001 11.4263 20.2001 13.7463C20.2001 16.0663 18.3201 17.9463 16.0001 17.9463Z" fill="#E9A900"></path>
</svg>
