<?xml version="1.0" encoding="UTF-8"?>
<svg xmlns="http://www.w3.org/2000/svg" width="32" height="32" viewBox="0 0 32 32" fill="none">
  <path d="M16 30.3332C15.4533 30.3332 15 29.8798 15 29.3332V26.6665C15 26.1198 15.4533 25.6665 16 25.6665C16.5467 25.6665 17 26.1198 17 26.6665V29.3332C17 29.8798 16.5467 30.3332 16 30.3332Z" fill="#E9A900"></path>
  <path d="M16 25.0002C15.4533 25.0002 15 24.5468 15 24.0002V21.3335C15 20.7868 15.4533 20.3335 16 20.3335C16.5467 20.3335 17 20.7868 17 21.3335V24.0002C17 24.5468 16.5467 25.0002 16 25.0002Z" fill="#E9A900"></path>
  <path d="M16 19.6668C15.4533 19.6668 15 19.2135 15 18.6668V14.6668C15 8.9735 19.64 4.3335 25.3333 4.3335H29.3333C29.88 4.3335 30.3333 4.78683 30.3333 5.3335C30.3333 5.88016 29.88 6.3335 29.3333 6.3335H25.3333C20.7333 6.3335 17 10.0668 17 14.6668V18.6668C17 19.2135 16.5467 19.6668 16 19.6668Z" fill="#E9A900"></path>
  <path d="M15.9998 19.6668C15.4532 19.6668 14.9998 19.2135 14.9998 18.6668V14.6668C14.9998 10.0668 11.2665 6.3335 6.6665 6.3335H2.6665C2.11984 6.3335 1.6665 5.88016 1.6665 5.3335C1.6665 4.78683 2.11984 4.3335 2.6665 4.3335H6.6665C12.3598 4.3335 16.9998 8.9735 16.9998 14.6668V18.6668C16.9998 19.2135 16.5465 19.6668 15.9998 19.6668Z" fill="#E9A900"></path>
  <path d="M5.33326 8.99992C5.07992 8.99992 4.82659 8.90659 4.62659 8.70659L1.95992 6.03992C1.57326 5.65326 1.57326 5.01326 1.95992 4.62659L4.62659 1.95992C5.01326 1.57326 5.65326 1.57326 6.03992 1.95992C6.42659 2.34659 6.42659 2.98659 6.03992 3.37326L4.07992 5.33326L6.03992 7.29325C6.42659 7.67992 6.42659 8.31992 6.03992 8.70659C5.83992 8.90659 5.58659 8.99992 5.33326 8.99992Z" fill="#E9A900"></path>
  <path d="M26.6666 8.99992C26.4133 8.99992 26.1599 8.90659 25.9599 8.70659C25.5733 8.31992 25.5733 7.67992 25.9599 7.29325L27.9199 5.33326L25.9599 3.37326C25.5733 2.98659 25.5733 2.34659 25.9599 1.95992C26.3466 1.57326 26.9866 1.57326 27.3733 1.95992L30.0399 4.62659C30.4266 5.01326 30.4266 5.65326 30.0399 6.03992L27.3733 8.70659C27.1733 8.90659 26.9199 8.99992 26.6666 8.99992Z" fill="#E9A900"></path>
</svg>
