<?xml version="1.0" encoding="UTF-8"?>
<svg xmlns="http://www.w3.org/2000/svg" width="32" height="32" viewBox="0 0 32 32" fill="none">
  <path d="M25.0801 8.33331H26.8934C26.6401 7.97331 26.3734 7.63997 26.0934 7.30664L25.0801 8.33331Z" fill="#E9A900"></path>
  <path d="M24.6932 5.89326C24.3598 5.61326 24.0265 5.3466 23.6665 5.09326V6.90659L24.6932 5.89326Z" fill="#E9A900"></path>
  <path d="M26.1067 7.30659L30.04 3.37326C30.4267 2.98659 30.4267 2.34659 30.04 1.95992C29.6534 1.57326 29.0134 1.57326 28.6267 1.95992L24.6934 5.89326C25.2 6.33326 25.6667 6.81326 26.1067 7.30659Z" fill="#E9A900"></path>
  <path d="M23.6668 4C23.6668 3.45333 23.2135 3 22.6668 3C22.1335 3 21.7068 3.42667 21.6802 3.94667C22.3735 4.28 23.0402 4.65333 23.6668 5.09333V4Z" fill="#E9A900"></path>
  <path d="M29.0002 9.3335C29.0002 8.78683 28.5469 8.3335 28.0002 8.3335H26.8936C27.3336 8.96016 27.7202 9.62683 28.0402 10.3202C28.5736 10.2935 29.0002 9.86683 29.0002 9.3335Z" fill="#E9A900"></path>
  <path d="M17 19.6666H17.4C17.92 19.6666 18.3333 19.1999 18.3333 18.6266C18.3333 17.9066 18.1333 17.7999 17.68 17.6399L17 17.3999V19.6666Z" fill="#E9A900"></path>
  <path d="M28.0532 10.3198C28.0398 10.3198 28.0265 10.3332 27.9998 10.3332H22.6665C22.5332 10.3332 22.4132 10.3065 22.2798 10.2532C22.0398 10.1465 21.8398 9.95984 21.7332 9.7065C21.6932 9.5865 21.6665 9.4665 21.6665 9.33317V3.99984C21.6665 3.9865 21.6798 3.97317 21.6798 3.9465C19.9465 3.13317 18.0265 2.6665 15.9998 2.6665C8.63984 2.6665 2.6665 8.63984 2.6665 15.9998C2.6665 23.3598 8.63984 29.3332 15.9998 29.3332C23.3598 29.3332 29.3332 23.3598 29.3332 15.9998C29.3332 13.9732 28.8665 12.0532 28.0532 10.3198ZM18.3332 15.7598C19.1865 16.0532 20.3332 16.6798 20.3332 18.6398C20.3332 20.3065 19.0132 21.6798 17.3998 21.6798H16.9998V22.0132C16.9998 22.5598 16.5465 23.0132 15.9998 23.0132C15.4532 23.0132 14.9998 22.5598 14.9998 22.0132V21.6798H14.8932C13.1198 21.6798 11.6665 20.1865 11.6665 18.3465C11.6665 17.7865 12.1198 17.3332 12.6665 17.3332C13.2132 17.3332 13.6665 17.7865 13.6665 18.3332C13.6665 19.0665 14.2132 19.6665 14.8932 19.6665H14.9998V16.7065L13.6665 16.2398C12.8132 15.9465 11.6665 15.3198 11.6665 13.3598C11.6665 11.6932 12.9865 10.3198 14.5998 10.3198H14.9998V9.99984C14.9998 9.45317 15.4532 8.99984 15.9998 8.99984C16.5465 8.99984 16.9998 9.45317 16.9998 9.99984V10.3332H17.1065C18.8798 10.3332 20.3332 11.8265 20.3332 13.6665C20.3332 14.2132 19.8798 14.6665 19.3332 14.6665C18.7865 14.6665 18.3332 14.2132 18.3332 13.6665C18.3332 12.9332 17.7865 12.3332 17.1065 12.3332H16.9998V15.2932L18.3332 15.7598Z" fill="#E9A900"></path>
  <path d="M13.6665 13.3735C13.6665 14.0935 13.8665 14.2002 14.3198 14.3602L14.9998 14.6002V12.3335H14.5998C14.0932 12.3335 13.6665 12.8002 13.6665 13.3735Z" fill="#E9A900"></path>
</svg>
