<?xml version="1.0" encoding="UTF-8"?>
<svg xmlns="http://www.w3.org/2000/svg" width="32" height="32" viewBox="0 0 32 32" fill="none">
  <path d="M15.9983 26.3337H12.425C10.8783 26.3337 9.53163 25.4003 8.99829 23.9603C8.45163 22.5203 8.85163 20.9337 10.0116 19.907L20.665 10.587C21.305 10.027 21.3183 9.26699 21.1316 8.74699C20.9316 8.22699 20.425 7.66699 19.5716 7.66699H15.9983C15.4516 7.66699 14.9983 7.21366 14.9983 6.66699C14.9983 6.12033 15.4516 5.66699 15.9983 5.66699H19.5716C21.1183 5.66699 22.465 6.60033 22.9983 8.04033C23.545 9.48033 23.145 11.067 21.985 12.0937L11.3316 21.4137C10.6916 21.9737 10.6783 22.7337 10.865 23.2537C11.065 23.7737 11.5716 24.3337 12.425 24.3337H15.9983C16.545 24.3337 16.9983 24.787 16.9983 25.3337C16.9983 25.8803 16.545 26.3337 15.9983 26.3337Z" fill="#E9A900"></path>
  <path d="M26.6652 20H22.6652C21.1985 20 19.9985 21.2 19.9985 22.6667V26.6667C19.9985 28.1333 21.1985 29.3333 22.6652 29.3333H26.6652C28.1319 29.3333 29.3319 28.1333 29.3319 26.6667V22.6667C29.3319 21.2 28.1319 20 26.6652 20ZM24.6785 26C23.9452 26 23.3452 25.4 23.3452 24.6667C23.3452 23.9333 23.9319 23.3333 24.6785 23.3333H24.6919C25.4252 23.3333 26.0252 23.9333 26.0252 24.6667C26.0252 25.4 25.4252 26 24.6785 26Z" fill="#E9A900"></path>
  <path d="M7.29167 2.66699C4.71833 2.66699 2.625 4.76033 2.625 7.33366C2.625 9.90699 4.71833 12.0003 7.29167 12.0003C9.865 12.0003 11.9583 9.90699 11.9583 7.33366C11.9583 4.76033 9.87833 2.66699 7.29167 2.66699ZM7.345 8.66699C6.61167 8.66699 6.01167 8.06699 6.01167 7.33366C6.01167 6.60033 6.59833 6.00033 7.345 6.00033H7.35833C8.09167 6.00033 8.69167 6.60033 8.69167 7.33366C8.69167 8.06699 8.09167 8.66699 7.345 8.66699Z" fill="#E9A900"></path>
</svg>
