<?xml version="1.0" encoding="UTF-8"?>
<svg xmlns="http://www.w3.org/2000/svg" width="32" height="32" viewBox="0 0 32 32" fill="none">
  <path d="M6.66683 20C3.72016 20 1.3335 22.3867 1.3335 25.3333C1.3335 26.3333 1.6135 27.28 2.10683 28.08C3.02683 29.6267 4.72016 30.6667 6.66683 30.6667C8.6135 30.6667 10.3068 29.6267 11.2268 28.08C11.7202 27.28 12.0002 26.3333 12.0002 25.3333C12.0002 22.3867 9.6135 20 6.66683 20ZM9.2935 24.8933L6.4535 27.52C6.26683 27.6933 6.0135 27.7867 5.7735 27.7867C5.52016 27.7867 5.26683 27.6933 5.06683 27.4933L3.74683 26.1733C3.36016 25.7867 3.36016 25.1467 3.74683 24.76C4.1335 24.3733 4.7735 24.3733 5.16016 24.76L5.80016 25.4L7.9335 23.4267C8.3335 23.0533 8.9735 23.08 9.34683 23.48C9.72016 23.88 9.6935 24.52 9.2935 24.8933Z" fill="#E9A900"></path>
  <path d="M28.6665 16.667H25.3332C23.8665 16.667 22.6665 17.867 22.6665 19.3337C22.6665 20.8003 23.8665 22.0003 25.3332 22.0003H28.6665C29.0398 22.0003 29.3332 21.707 29.3332 21.3337V17.3337C29.3332 16.9603 29.0398 16.667 28.6665 16.667Z" fill="#E9A900"></path>
  <path d="M22.0401 7.19988C22.4401 7.58655 22.1068 8.18655 21.5468 8.18655L10.5068 8.17322C9.86678 8.17322 9.54678 7.39988 10.0001 6.94655L12.3334 4.59988C14.3068 2.63988 17.4934 2.63988 19.4668 4.59988L21.9868 7.14655C22.0001 7.15988 22.0268 7.18655 22.0401 7.19988Z" fill="#E9A900"></path>
  <path d="M29.1601 24.8797C28.3468 27.6263 26.0001 29.333 22.8001 29.333H14.1335C13.6135 29.333 13.2801 28.7597 13.4935 28.2797C13.8935 27.3463 14.1468 26.293 14.1468 25.333C14.1468 21.293 10.8535 17.9997 6.81348 17.9997C5.80014 17.9997 4.81348 18.213 3.90681 18.613C3.41348 18.8263 2.81348 18.493 2.81348 17.9597V15.9997C2.81348 12.373 5.00014 9.83967 8.40014 9.41301C8.73348 9.35967 9.09348 9.33301 9.46681 9.33301H22.8001C23.1468 9.33301 23.4801 9.34634 23.8001 9.39967C26.4935 9.70634 28.4401 11.3463 29.1601 13.7863C29.2935 14.2263 28.9735 14.6663 28.5201 14.6663H25.4668C22.5735 14.6663 20.2801 17.3063 20.9068 20.3063C21.3468 22.493 23.3735 23.9997 25.6001 23.9997H28.5201C28.9868 23.9997 29.2935 24.453 29.1601 24.8797Z" fill="#E9A900"></path>
</svg>
