<?xml version="1.0" encoding="UTF-8"?>
<svg xmlns="http://www.w3.org/2000/svg" width="32" height="32" viewBox="0 0 32 32" fill="none">
  <path d="M9.33317 2.6665H7.99984C3.99984 2.6665 2.6665 5.05317 2.6665 7.99984V9.33317V27.9998C2.6665 29.1065 3.91984 29.7332 4.79984 29.0665L7.07984 27.3598C7.61317 26.9598 8.35984 27.0132 8.83984 27.4932L11.0532 29.7198C11.5732 30.2398 12.4265 30.2398 12.9465 29.7198L15.1865 27.4798C15.6532 27.0132 16.3998 26.9598 16.9198 27.3598L19.1998 29.0665C20.0798 29.7198 21.3332 29.0932 21.3332 27.9998V5.33317C21.3332 3.8665 22.5332 2.6665 23.9998 2.6665H9.33317ZM14.9998 18.3332H8.99984C8.45317 18.3332 7.99984 17.8798 7.99984 17.3332C7.99984 16.7865 8.45317 16.3332 8.99984 16.3332H14.9998C15.5465 16.3332 15.9998 16.7865 15.9998 17.3332C15.9998 17.8798 15.5465 18.3332 14.9998 18.3332ZM15.9998 12.9998H7.99984C7.45317 12.9998 6.99984 12.5465 6.99984 11.9998C6.99984 11.4532 7.45317 10.9998 7.99984 10.9998H15.9998C16.5465 10.9998 16.9998 11.4532 16.9998 11.9998C16.9998 12.5465 16.5465 12.9998 15.9998 12.9998Z" fill="#E9A900"></path>
  <path d="M24.0135 2.6665V4.6665C24.8935 4.6665 25.7335 5.0265 26.3468 5.6265C26.9868 6.27984 27.3335 7.11984 27.3335 7.99984V11.2265C27.3335 12.2132 26.8935 12.6665 25.8935 12.6665H23.3335V5.3465C23.3335 4.97317 23.6402 4.6665 24.0135 4.6665V2.6665ZM24.0135 2.6665C22.5335 2.6665 21.3335 3.8665 21.3335 5.3465V14.6665H25.8935C28.0002 14.6665 29.3335 13.3332 29.3335 11.2265V7.99984C29.3335 6.53317 28.7335 5.19984 27.7735 4.2265C26.8002 3.2665 25.4802 2.67984 24.0135 2.6665C24.0268 2.6665 24.0135 2.6665 24.0135 2.6665Z" fill="#E9A900"></path>
</svg>
