<?xml version="1.0" encoding="UTF-8"?>
<svg xmlns="http://www.w3.org/2000/svg" width="40" height="40" viewBox="0 0 40 40" fill="none">
  <g clip-path="url(#clip0_369_3244)">
    <path d="M-8.07959 0H47.8736V40H-8.07959V0Z" fill="#181A93"></path>
    <path d="M-10.103 0H49.897V13.3333H-10.103V0Z" fill="#FFA44A"></path>
    <path d="M-10.103 26.6665H49.897V39.9998H-10.103V26.6665Z" fill="#1A9F0B"></path>
    <path d="M-10.103 13.3335H49.897V26.6668H-10.103V13.3335Z" fill="white"></path>
    <path d="M19.897 24C22.1061 24 23.897 22.2091 23.897 20C23.897 17.7909 22.1061 16 19.897 16C17.6878 16 15.897 17.7909 15.897 20C15.897 22.2091 17.6878 24 19.897 24Z" fill="white"></path>
    <path d="M19.8968 25.3332C16.9611 25.3332 14.5635 22.9355 14.5635 19.9998C14.5635 17.0642 16.9611 14.6665 19.8968 14.6665C22.8325 14.6665 25.2301 17.0642 25.2301 19.9998C25.2301 22.9355 22.8325 25.3332 19.8968 25.3332ZM19.8968 23.9998C22.0255 23.9998 23.8968 22.1285 23.8968 19.9998C23.8968 17.8712 22.0372 15.9998 19.8968 15.9998C17.7565 15.9998 15.8968 17.8712 15.8968 19.9998C15.8968 22.1285 17.7682 23.9998 19.8968 23.9998Z" fill="#181A93"></path>
    <path d="M19.8969 22.6668C21.3697 22.6668 22.5636 21.4729 22.5636 20.0002C22.5636 18.5274 21.3697 17.3335 19.8969 17.3335C18.4241 17.3335 17.2302 18.5274 17.2302 20.0002C17.2302 21.4729 18.4241 22.6668 19.8969 22.6668Z" fill="#181A93"></path>
  </g>
  <defs>
    <clipPath id="clip0_369_3244">
      <rect width="40" height="40" rx="20" fill="white"></rect>
    </clipPath>
  </defs>
</svg>
