<?xml version="1.0" encoding="UTF-8"?>
<svg xmlns="http://www.w3.org/2000/svg" width="132" height="47" viewBox="0 0 132 47" fill="none">
  <g clip-path="url(#clip0_369_2854)">
    <path d="M18.2754 40.5904C16.6508 38.175 16.3968 37.0796 16.3968 32.4899C16.3968 27.6779 16.3558 27.5895 14.0203 27.3636C11.4213 27.1123 9.29843 28.8095 9.29843 31.1387C9.29843 32.3288 9.44432 32.6401 10.4267 33.5462C11.6579 34.6817 12.5736 34.8448 13.6111 34.1135C14.5381 33.46 14.5059 32.6948 13.5613 32.9334C12.6202 33.1711 11.7382 32.0511 12.193 31.1959C12.9066 29.8538 14.9872 31.036 14.9872 32.7837C14.9872 34.9463 11.9255 35.9051 10.2002 34.2828C8.43557 32.6234 8.09287 30.7895 9.23009 29.0912C10.6579 26.9589 13.0911 26.1268 15.3598 26.9949L16.1746 27.3066L15.9674 25.7348C15.6899 23.6296 14.9242 22.212 13.2014 20.6138L11.7674 19.2836L11.4159 20.4818C10.91 22.2062 10.2214 23.1323 8.88241 23.8897C6.62172 25.1684 4.01579 24.4817 3.00654 22.3412C2.41093 21.0781 2.36648 20.0196 2.86296 18.923C3.24607 18.0768 4.51743 17.2595 5.45073 17.2595C6.12864 17.2595 7.21531 18.225 7.47919 19.0617C7.72672 19.8466 7.15821 20.9087 6.49374 20.9027C5.23432 20.8909 4.66132 19.6463 5.51852 18.7837C6.20267 18.0951 5.84096 17.7212 4.75587 17.9953C3.97055 18.1936 3.10622 19.5602 3.10622 20.6034C3.10622 22.3124 4.8364 23.9472 6.64511 23.9472C8.64267 23.9472 10.9426 21.6427 10.9548 19.629C10.9593 18.7792 10.842 18.693 5.52268 15.6556C3.70648 14.6185 2.43657 13.2302 1.29068 11.029L0.341797 9.20631L1.04438 9.00743C3.69228 8.25779 6.5676 8.96664 10.5509 11.3514C12.3482 12.4274 13.9644 13.3077 14.1423 13.3077C14.639 13.3077 16.3017 11.4259 16.5597 10.5718C17.0981 8.78998 16.4238 6.37338 15.2053 5.71707C14.8856 5.54494 13.9974 5.40405 13.2313 5.40405C11.3602 5.40405 10.2765 6.41954 10.4131 8.04474C10.5116 9.21683 11.2618 9.87022 11.2618 8.78394C11.2618 7.92991 12.2798 7.40811 13.0922 7.84571C14.0154 8.34293 13.774 9.71382 12.6966 10.0929C9.78606 11.117 8.46062 6.91152 11.19 5.31289C14.1128 3.60104 17.3727 5.55724 17.3727 9.02297C17.3727 10.6794 17.0117 11.5297 15.7294 12.8943L14.8324 13.8488L16.4453 14.3925C17.3323 14.6915 18.6698 14.9362 19.4174 14.9362C20.1649 14.9362 21.5024 14.6915 22.3894 14.3925L24.0023 13.8488L23.1053 12.8943C21.823 11.5297 21.462 10.6794 21.462 9.02297C21.462 5.55724 24.7219 3.60104 27.6447 5.31289C30.3741 6.91152 29.0486 11.117 26.1381 10.0929C25.0607 9.71382 24.8193 8.34293 25.7425 7.84571C26.5549 7.40811 27.5729 7.92989 27.5729 8.78394C27.5729 9.87022 28.323 9.21683 28.4216 8.04474C28.5582 6.41954 27.4745 5.40405 25.6034 5.40405C24.8373 5.40405 23.9491 5.54496 23.6294 5.71707C22.4109 6.37338 21.7366 8.78998 22.275 10.5718C22.5262 11.4035 24.1906 13.3077 24.6663 13.3077C24.8299 13.3077 26.3825 12.4627 28.1164 11.43C32.2043 8.99511 35.1453 8.25861 37.7903 9.00743L38.4929 9.20631L37.544 11.029C36.3981 13.2302 35.1282 14.6185 33.312 15.6556C27.9928 18.693 27.8748 18.7792 27.8799 19.629C27.8879 20.8599 29.0966 22.7463 30.2867 23.3836C33.1557 24.92 36.293 22.7548 35.549 19.752C35.2495 18.543 34.0551 17.6321 33.2015 17.9618C32.7408 18.1397 32.7497 18.2136 33.2983 18.7657C34.1723 19.6452 33.6141 20.8913 32.341 20.9027C31.6765 20.9098 31.108 19.8466 31.3555 19.0617C31.6194 18.225 32.7061 17.2595 33.384 17.2595C34.3173 17.2595 35.5886 18.0768 35.9717 18.923C36.4682 20.0196 36.4238 21.0781 35.8282 22.3412C34.8189 24.4817 32.213 25.1684 29.9523 23.8897C28.6133 23.1323 27.9247 22.2062 27.4188 20.4818L27.0673 19.2836L25.6333 20.6138C23.9105 22.212 23.1448 23.6296 22.8673 25.7348L22.6601 27.3066L23.4749 26.9949C25.7436 26.1268 28.1768 26.9589 29.6046 29.0912C30.7418 30.7895 30.3992 32.6234 28.6345 34.2828C26.9092 35.9051 23.8475 34.9463 23.8475 32.7837C23.8475 31.036 25.9281 29.8538 26.6418 31.1959C27.0965 32.0511 26.2145 33.1711 25.2734 32.9334C24.3289 32.6948 24.2966 33.46 25.2236 34.1135C26.2611 34.8448 27.1768 34.6817 28.408 33.5462C29.3904 32.6401 29.5363 32.3288 29.5363 31.1387C29.5363 28.8095 27.4134 27.1123 24.8144 27.3636C22.4891 27.5885 22.4379 27.6954 22.4379 32.3334C22.4379 35.277 22.3033 36.7883 21.9473 37.844C21.422 39.4012 19.8676 41.8824 19.4173 41.8824C19.2672 41.8824 18.7533 41.301 18.2754 40.5904ZM20.7766 38.994C21.6362 37.3094 21.6879 36.9979 21.7824 32.9455C21.8804 28.737 21.8731 28.681 21.2974 29.2054C20.9759 29.4982 20.4584 30.2132 20.1474 30.7943C19.8365 31.3754 19.5079 31.8509 19.4174 31.8509C19.3269 31.8509 18.9983 31.3754 18.6873 30.7943C18.3764 30.2132 17.8697 29.508 17.5614 29.2273C17.0183 28.7326 17.0009 28.8348 17.0009 32.5255C17.0009 36.5078 17.2958 37.9274 18.5461 39.9633C18.8958 40.5328 19.3369 40.9473 19.5262 40.8844C19.7156 40.8217 20.2782 39.9708 20.7766 38.994ZM13.8293 31.8297C13.8293 31.5951 13.5914 31.3571 13.3007 31.3007C12.78 31.2 12.5648 31.8449 12.9798 32.2625C13.2964 32.5811 13.8293 32.3095 13.8293 31.8297ZM26.0093 31.7497C26.0658 31.4565 25.9142 31.2429 25.6495 31.2429C25.0884 31.2429 24.7497 31.7384 25.0153 32.1709C25.2885 32.6158 25.8916 32.3602 26.0093 31.7497ZM20.8856 28.7165C21.6977 27.7666 22.1359 26.9603 22.1359 26.4158C22.1359 25.9547 22.3508 24.8345 22.6135 23.9264C23.0045 22.5744 23.456 21.9212 25.1054 20.321C26.6509 18.8216 27.2656 17.9646 27.7461 16.6398L28.3724 14.9129L26.4809 14.5622C24.7266 14.2369 24.4182 14.2697 22.2299 15.0148C20.0324 15.763 19.7469 15.7929 18.0705 15.4498C17.0806 15.2473 15.8785 14.8775 15.3992 14.6281C14.6632 14.245 14.212 14.2314 12.4939 14.5404L10.46 14.9062L11.0874 16.6364C11.5693 17.9651 12.1824 18.8202 13.7293 20.3209C15.3788 21.9212 15.8303 22.5744 16.2213 23.9264C16.484 24.8345 16.6989 25.949 16.6989 26.403C16.6989 27.186 19.0104 30.4165 19.4508 30.249C19.5523 30.2105 20.1979 29.5209 20.8856 28.7165ZM6.88198 19.6914C6.88198 19.4452 6.6441 19.1977 6.35337 19.1413C5.98249 19.0694 5.82477 19.2335 5.82477 19.6914C5.82477 20.1493 5.98249 20.3134 6.35337 20.2415C6.6441 20.1852 6.88198 19.9376 6.88198 19.6914ZM33.01 19.6914C33.01 19.357 32.8141 19.0834 32.5747 19.0834C32.0411 19.0834 31.6999 19.5837 31.9528 19.9954C32.2813 20.5303 33.01 20.3208 33.01 19.6914ZM9.9469 15.5827L9.18993 14.2197L10.4524 14.1893C11.1468 14.1727 12.0547 14.0628 12.47 13.9452L13.2252 13.7316L12.47 13.2515C9.54676 11.3929 7.28046 10.1848 5.99903 9.8018C4.38673 9.31994 1.72567 9.20269 1.48004 9.60267C1.25834 9.96366 2.90524 12.7195 3.90656 13.663C4.38011 14.1093 6.05887 15.2247 7.63712 16.1416C10.8275 17.9952 11.2324 17.8973 9.9469 15.5827ZM32.2901 15.486C33.4725 14.8007 34.8649 13.7529 35.3844 13.1574C36.4822 11.8991 37.5999 9.82051 37.3265 9.54544C36.9824 9.19906 34.3495 9.34934 32.8357 9.80177C31.5543 10.1847 29.288 11.3929 26.3647 13.2514L25.6096 13.7316L26.3647 13.9453C26.78 14.0628 27.6897 14.1726 28.3861 14.1893L29.6523 14.2197L28.9183 15.5116C28.5146 16.2222 28.1827 17.0541 28.1807 17.3604C28.1773 17.8926 28.2202 17.8911 29.1587 17.3247C29.6987 16.9988 31.1078 16.1713 32.2901 15.486ZM13.0208 8.95072C13.0867 8.60902 12.9145 8.44392 12.4922 8.44392C12.1477 8.44392 11.8659 8.62632 11.8659 8.84925C11.8659 9.78028 12.8444 9.86622 13.0208 8.95072ZM26.9155 8.95072C26.9813 8.60902 26.8092 8.44392 26.3869 8.44392C26.0424 8.44392 25.7606 8.62632 25.7606 8.84925C25.7606 9.78028 26.739 9.86622 26.9155 8.95072ZM6.12397 32.2993C5.69708 31.1693 5.74514 30.8188 6.45081 29.916C7.22864 28.9208 7.55686 28.9091 7.98794 29.8613C8.3968 30.7644 7.86777 32.3132 6.98872 32.7867C6.5215 33.0383 6.37116 32.9536 6.12397 32.2993ZM7.63712 30.5768C7.63712 30.2744 7.50597 30.027 7.34569 30.027C6.88642 30.027 6.36201 31.2376 6.57823 31.7986C6.75538 32.2583 6.81533 32.2505 7.2056 31.7167C7.44294 31.3921 7.63712 30.8793 7.63712 30.5768ZM31.5376 32.497C30.7248 31.6791 30.455 30.5514 30.8805 29.7513C31.3278 28.9102 31.6277 28.9485 32.4076 29.9462C32.8825 30.5539 33.0087 31.0213 32.8769 31.6846C32.6154 33.0005 32.255 33.219 31.5376 32.497ZM32.1625 30.7952C31.9712 30.3727 31.6759 30.027 31.5062 30.027C31.1153 30.027 31.1165 30.3805 31.5109 31.4246C31.7447 32.0435 31.9112 32.1663 32.1672 31.9086C32.4232 31.651 32.422 31.3685 32.1625 30.7952ZM2.65149 30.0242C2.09256 29.114 3.69386 27.3542 5.32301 27.0881C6.60879 26.8781 7.02548 27.4627 6.46792 28.6942C5.94129 29.8574 3.14706 30.8312 2.65149 30.0242ZM5.57841 28.9123C6.29507 28.2595 6.27866 27.595 5.54587 27.595C4.90373 27.595 3.10622 28.9868 3.10622 29.484C3.10622 29.936 4.91319 29.5179 5.57841 28.9123ZM33.6898 29.8846C32.6149 29.4069 31.9127 28.2308 32.2205 27.4235C32.727 26.0952 36.5464 28.2143 36.272 29.6714C36.147 30.3354 34.9302 30.4359 33.6898 29.8846ZM35.7285 29.446C35.7285 28.9784 33.9051 27.595 33.2889 27.595C32.5639 27.595 32.5366 28.2626 33.2365 28.8762C34.1196 29.6503 35.7285 30.0182 35.7285 29.446ZM3.24679 26.3938C2.90876 26.256 2.43815 25.9078 2.20099 25.6203C1.8221 25.1608 1.83954 25.046 2.34473 24.6743C3.2238 24.0274 4.25846 24.1672 5.13725 25.0515C5.90129 25.8205 5.91035 25.8683 5.36785 26.2675C4.73755 26.7313 4.15868 26.7658 3.24679 26.3938ZM4.7582 25.7864C5.00934 25.3774 3.76427 24.7729 3.15816 25.0095C2.70142 25.1877 2.70919 25.2481 3.23945 25.6408C3.91751 26.143 4.50461 26.1993 4.7582 25.7864ZM33.4847 26.2864C32.9174 25.8633 32.923 25.831 33.6975 25.0515C34.5827 24.1607 35.6158 24.0274 36.5014 24.6896C37.0809 25.123 37.0807 25.1353 36.4826 25.7462C35.6694 26.5768 34.2234 26.8374 33.4847 26.2864ZM35.5953 25.6408C36.1256 25.2481 36.1333 25.1877 35.6767 25.0095C35.0706 24.7729 33.8255 25.3774 34.0766 25.7864C34.3302 26.1993 34.9172 26.143 35.5953 25.6408ZM11.6799 24.725C11.2267 23.5365 12.3322 22.3036 13.3007 22.9174C14.4414 23.6404 13.949 25.1632 12.5746 25.1632C12.1744 25.1632 11.7718 24.966 11.6799 24.725ZM13.2252 23.9431C13.2252 23.2915 12.3475 23.3856 12.2202 24.0506C12.1425 24.4568 12.2655 24.5807 12.6692 24.5024C12.975 24.4431 13.2252 24.1916 13.2252 23.9431ZM25.1812 24.7372C24.7001 24.1538 24.8566 23.3468 25.5341 22.9174C26.3089 22.4264 27.1199 23.0476 27.1199 24.1324C27.1199 24.8513 26.9778 25.0278 26.3389 25.1026C25.9093 25.1527 25.3884 24.9883 25.1812 24.7372ZM26.6668 24.1172C26.6668 23.5229 26.0813 23.1989 25.7002 23.5825C25.5298 23.754 25.4817 24.043 25.5933 24.2247C25.8894 24.7069 26.6668 24.6288 26.6668 24.1172ZM18.525 13.1725C18.3258 12.9309 18.2072 12.4179 18.2615 12.0325C18.3431 11.4533 18.5435 11.3318 19.4174 11.3318C20.2913 11.3318 20.4917 11.4534 20.5733 12.0325C20.6914 12.8714 20.1495 13.6117 19.4174 13.6117C19.1258 13.6117 18.7242 13.4141 18.525 13.1725ZM19.9681 12.2946C20.034 11.9529 19.8618 11.7878 19.4395 11.7878C19.0951 11.7878 18.8133 11.9702 18.8133 12.1931C18.8133 13.1242 19.7917 13.2101 19.9681 12.2946ZM15.6885 4.72012C15.2803 4.34394 14.8624 3.65996 14.7597 3.20019C14.5964 2.46942 14.6636 2.36423 15.2931 2.36423C16.4118 2.36423 17.605 3.47383 17.605 4.5142C17.605 5.62824 16.7709 5.71785 15.6885 4.72012ZM16.3731 3.49974C15.852 3.07511 15.6252 3.02193 15.5322 3.30266C15.4622 3.51409 15.726 3.94875 16.1184 4.26859C16.6395 4.69323 16.8664 4.7464 16.9593 4.46565C17.0294 4.25425 16.7656 3.81956 16.3731 3.49974ZM18.7091 4.84818C18.059 4.12525 18.0682 2.24215 18.7273 1.11918C19.0123 0.633623 19.3228 0.236328 19.4173 0.236328C19.5119 0.236328 19.8223 0.633623 20.1074 1.11918C20.8023 2.30322 20.7847 4.25295 20.0732 4.90101C19.3822 5.53035 19.3203 5.52794 18.7091 4.84818ZM19.8705 2.94688C19.8705 1.9561 19.7517 1.60427 19.4174 1.60427C18.9381 1.60427 18.6237 3.25248 18.9432 4.09038C19.2903 5.00071 19.8705 4.28524 19.8705 2.94688ZM21.2297 4.5142C21.2297 3.47383 22.4229 2.36423 23.5416 2.36423C24.1712 2.36423 24.2383 2.46936 24.0751 3.20019C23.8495 4.20977 22.6259 5.40408 21.817 5.40408C21.3691 5.40408 21.2297 5.19291 21.2297 4.5142ZM23.3022 3.40837C23.4036 2.89155 23.362 2.88605 22.698 3.32903C22.3058 3.59072 21.9358 4.05466 21.8758 4.35996C21.7743 4.87683 21.816 4.88227 22.4799 4.43929C22.8722 4.17762 23.2422 3.71367 23.3022 3.40837Z" fill="#E9A900" stroke="#E9A900" stroke-width="1.51363"></path>
    <path d="M47.5019 30.3033V36H43.0002V14.5187C42.992 12.3165 43.2503 10.8132 43.7751 10.0088C44.1359 9.53407 44.7591 9.23736 45.6446 9.11868C46.153 9.03956 46.7844 9 47.5388 9H49.3715C50.4948 9 51.3353 9.07912 51.8929 9.23736C52.4505 9.38242 52.8605 9.63956 53.1229 10.0088C53.6641 10.8132 53.9265 12.3165 53.9101 14.5187V36H49.4084V30.3033H47.5019ZM47.5019 24.2901H49.4084V17.1495C49.4084 15.5011 49.0886 14.6769 48.449 14.6769C47.8176 14.6769 47.5019 15.5011 47.5019 17.1495V24.2901Z" fill="white"></path>
    <path d="M55.5336 9H61.9049C62.7741 9.01319 63.3235 9.02637 63.5531 9.03956C64.9798 9.13187 65.8531 10.0154 66.1729 11.6901C66.3533 12.5209 66.4558 14.6505 66.4804 18.0791V25.3582C66.4804 28.378 66.4066 30.5868 66.259 31.9846C66.1114 33.3824 65.849 34.378 65.4718 34.9714C65.1192 35.5385 64.6272 35.8549 63.9959 35.9209C63.8811 35.9341 63.1841 35.9604 61.9049 36H55.5336V9ZM60.0353 30.0462H60.8471C61.2981 30.0462 61.5933 29.9143 61.7327 29.6505C61.8885 29.3473 61.9705 28.6879 61.9787 27.6725V17.2484C61.9705 16.2198 61.8885 15.5604 61.7327 15.2703C61.5933 15.0066 61.2981 14.8747 60.8471 14.8747H60.0353V30.0462Z" fill="white"></path>
    <path d="M74.0939 9H78.5956V21.0659C78.5874 23.3209 78.2759 25.9121 77.6609 28.8396C77.1689 31.1604 76.4842 33.5473 75.6068 36H70.7238C69.7808 33.3626 69.0469 30.7385 68.5222 28.1275C67.9974 25.5033 67.735 23.1494 67.735 21.0659V9H72.2367V28.4044C72.2367 29.1297 72.2941 29.6242 72.4089 29.8879C72.5893 30.3099 72.8435 30.5209 73.1715 30.5209C73.5487 30.5209 73.8193 30.2505 73.9832 29.7099C74.057 29.4725 74.0939 29.0374 74.0939 28.4044V9Z" fill="white"></path>
    <path d="M80.0593 9H84.561V36H80.0593V9Z" fill="white"></path>
    <path d="M94.1794 9V14.8747H90.2189V19.5626H91.0307C92.0311 19.5758 92.7363 19.7407 93.1462 20.0571C93.794 20.5319 94.2286 21.5077 94.45 22.9846C94.5648 23.7363 94.6263 24.9824 94.6345 26.7231V28.3846C94.6017 30.6659 94.5443 32.0176 94.4623 32.4396C94.2245 34.3516 93.6218 35.4791 92.6543 35.822C92.3345 35.9143 91.4448 35.9736 89.9852 36H85.7787V30.1253H90.0098V25.4374H89.3087C88.4723 25.4374 87.8738 25.3385 87.513 25.1407C86.9554 24.8374 86.5495 24.3758 86.2953 23.756C85.9919 22.9648 85.8074 21.8571 85.7418 20.433C85.7254 19.9978 85.7172 19.2 85.7172 18.0396V16.378C85.7336 14.0835 85.8484 12.5209 86.0616 11.6901C86.2912 10.6747 86.6192 9.98242 87.0456 9.61319C87.4228 9.25714 88.0091 9.05934 88.8044 9.01978C89.0914 9.00659 89.5875 9 90.2927 9H94.1794Z" fill="white"></path>
    <path d="M106.578 19.9582V25.022C106.578 27.0791 106.528 28.7407 106.43 30.0066C106.209 32.5516 105.659 34.2462 104.782 35.0901C104.175 35.6835 103.289 35.9868 102.125 36H100.096C98.9312 35.9868 98.0457 35.6835 97.4389 35.0901C96.5615 34.2462 96.008 32.5516 95.7784 30.0066C95.6882 28.7407 95.6431 27.0791 95.6431 25.022V19.9582C95.6431 17.9011 95.6882 16.2396 95.7784 14.9736C96.008 12.4418 96.5615 10.7538 97.4389 9.90989C98.0457 9.31648 98.9312 9.01319 100.096 9H102.125C103.289 9.01319 104.175 9.31648 104.782 9.90989C105.659 10.7538 106.209 12.4418 106.43 14.9736C106.528 16.2396 106.578 17.9011 106.578 19.9582ZM102.076 28.3648V16.7143C102.076 15.989 101.982 15.4615 101.793 15.1319C101.596 14.7758 101.371 14.5978 101.116 14.5978C100.805 14.5978 100.551 14.822 100.354 15.2703C100.215 15.5868 100.145 16.0681 100.145 16.7143V28.3648C100.145 29.0901 100.239 29.6242 100.428 29.967C100.624 30.3231 100.854 30.5011 101.116 30.5011C101.42 30.5011 101.67 30.2769 101.867 29.8286C102.006 29.4989 102.076 29.011 102.076 28.3648Z" fill="white"></path>
    <path d="M108.029 9H114.917C115.934 9 116.643 9.03956 117.045 9.11868C117.856 9.27692 118.385 9.94286 118.631 11.1165C118.82 11.9604 118.918 12.989 118.927 14.2022V15.9429C118.927 17.1429 118.906 17.9934 118.865 18.4945C118.742 19.8527 118.418 20.8418 117.893 21.4615C117.59 21.8044 117.114 22.0352 116.467 22.1538C117.131 22.4703 117.615 22.7868 117.918 23.1033C118.631 23.9077 118.968 25.3055 118.927 27.2967V31.4703C118.935 33.3165 119.054 34.8264 119.283 36H114.769C114.531 34.8527 114.417 33.3363 114.425 31.4505V27.8505C114.417 26.8879 114.29 26.2352 114.044 25.8923C113.814 25.589 113.498 25.4374 113.096 25.4374H112.531V36H108.029V9ZM112.531 19.5626H113.17C113.679 19.5626 114.007 19.4374 114.154 19.1868C114.351 18.8571 114.449 18.1978 114.449 17.2088C114.449 16.2462 114.314 15.5736 114.044 15.1912C113.88 14.967 113.588 14.8549 113.17 14.8549H112.531V19.5626Z" fill="white"></path>
    <path d="M128.545 9V14.8747H124.584V19.5626H125.396C126.397 19.5758 127.102 19.7407 127.512 20.0571C128.16 20.5319 128.594 21.5077 128.816 22.9846C128.93 23.7363 128.992 24.9824 129 26.7231V28.3846C128.967 30.6659 128.91 32.0176 128.828 32.4396C128.59 34.3516 127.987 35.4791 127.02 35.822C126.7 35.9143 125.81 35.9736 124.351 36H120.144V30.1253H124.375V25.4374H123.674C122.838 25.4374 122.239 25.3385 121.878 25.1407C121.321 24.8374 120.915 24.3758 120.661 23.756C120.357 22.9648 120.173 21.8571 120.107 20.433C120.091 19.9978 120.083 19.2 120.083 18.0396V16.378C120.099 14.0835 120.214 12.5209 120.427 11.6901C120.657 10.6747 120.985 9.98242 121.411 9.61319C121.788 9.25714 122.375 9.05934 123.17 9.01978C123.457 9.00659 123.953 9 124.658 9H128.545Z" fill="white"></path>
    <path d="M45.2172 43.2714V44.8449C45.2172 45.3456 45.2244 45.68 45.239 45.8481C45.2535 46.0126 45.288 46.146 45.3425 46.2484C45.4478 46.4421 45.722 46.5389 46.1651 46.5389H46.4048V46.7911H43V46.5389H43.1961C43.6392 46.5389 43.9116 46.4421 44.0133 46.2484C44.0677 46.146 44.1022 46.0126 44.1168 45.8481C44.1349 45.68 44.144 45.3456 44.144 44.8449V41.1717C44.144 40.6344 44.1331 40.2835 44.1113 40.119C44.0895 39.9509 44.0369 39.8212 43.9533 39.7298C43.888 39.6603 43.8044 39.6146 43.7027 39.5927C43.6011 39.5708 43.414 39.5598 43.1416 39.5598H43V39.3076L43.9315 39.2748C44.6252 39.2491 45.2045 39.2363 45.6693 39.2363C46.2649 39.2363 46.7353 39.2674 47.0803 39.3296C47.4289 39.3917 47.7267 39.4977 47.9737 39.6476C48.5729 40.0131 48.8725 40.5522 48.8725 41.2649C48.8725 41.6669 48.7763 42.0269 48.5838 42.3449C48.3696 42.6958 48.079 42.9388 47.7122 43.0741C47.3454 43.2056 46.7861 43.2714 46.0343 43.2714H45.2172ZM45.2172 42.9973H45.7511C46.1142 42.9973 46.3884 42.9772 46.5736 42.937C46.7589 42.8967 46.9332 42.8181 47.0966 42.7012C47.507 42.4051 47.7122 41.9373 47.7122 41.2977C47.7122 40.6252 47.5215 40.1391 47.1402 39.8394C46.9877 39.7151 46.8061 39.6292 46.5954 39.5817C46.3884 39.5306 46.1051 39.505 45.7456 39.505C45.5386 39.505 45.3625 39.5123 45.2172 39.5269V42.9973Z" fill="white"></path>
    <path d="M56.8771 39.2363C57.6179 39.2363 58.3152 39.3953 58.9689 39.7133C59.6771 40.0605 60.2001 40.5649 60.5379 41.2265C60.8248 41.793 60.9682 42.418 60.9682 43.1014C60.9682 43.9969 60.7376 44.7754 60.2764 45.4369C59.9096 45.9596 59.4175 46.3561 58.8001 46.6266C58.219 46.8752 57.5943 46.9994 56.9261 46.9994C55.7603 46.9994 54.8051 46.6595 54.0606 45.9797C53.2689 45.2524 52.873 44.2692 52.873 43.0301C52.873 42.2261 53.0782 41.517 53.4886 40.903C53.8554 40.3511 54.3675 39.9253 55.0249 39.6256C55.595 39.3661 56.2124 39.2363 56.8771 39.2363ZM56.9097 39.5104C56.4267 39.5104 55.9873 39.611 55.5914 39.812C55.0793 40.0715 54.7071 40.4973 54.4747 41.0894C54.2459 41.6669 54.1315 42.3284 54.1315 43.074C54.1315 43.7173 54.2023 44.2911 54.3439 44.7955C54.4856 45.2999 54.6871 45.6873 54.9486 45.9578C55.4389 46.4658 56.1071 46.7198 56.9533 46.7198C57.8322 46.7198 58.5241 46.3982 59.0289 45.7549C59.2468 45.4808 59.412 45.1189 59.5246 44.6694C59.6481 44.1943 59.7098 43.6771 59.7098 43.1179C59.7098 41.7656 59.4011 40.797 58.7837 40.2122C58.2898 39.7444 57.6651 39.5104 56.9097 39.5104Z" fill="white"></path>
    <path d="M72.8495 46.8294H70.8502C70.4798 46.5553 69.935 45.9011 69.2159 44.8667C68.722 44.1504 68.3352 43.6606 68.0556 43.3974C67.9285 43.2805 67.7523 43.222 67.5272 43.222H67.2276V44.8832C67.2276 45.3875 67.2348 45.722 67.2493 45.8864C67.2639 46.0509 67.2984 46.1843 67.3529 46.2867C67.4582 46.4804 67.7306 46.5772 68.17 46.5772H68.5295V46.8294H64.9668V46.5772H65.2065C65.6496 46.5772 65.9219 46.4804 66.0236 46.2867C66.0781 46.1843 66.1126 46.0509 66.1271 45.8864C66.1453 45.722 66.1544 45.3875 66.1544 44.8832V41.21C66.1544 40.6763 66.1435 40.3255 66.1217 40.1573C66.0999 39.9892 66.0472 39.8595 65.9637 39.7681C65.8983 39.6986 65.8148 39.6529 65.7131 39.631C65.6114 39.6091 65.4244 39.5981 65.152 39.5981H65.0213V39.3459L66.0836 39.2911C66.8135 39.2546 67.3801 39.2363 67.7832 39.2363C68.8364 39.2363 69.6136 39.3916 70.1148 39.7023C70.7031 40.0678 70.9973 40.5594 70.9973 41.1771C70.9973 41.8313 70.6995 42.332 70.1039 42.6793C69.7589 42.8803 69.3503 43.01 68.8782 43.0685C69.2523 43.2768 69.8152 43.9073 70.567 44.9599C71.0064 45.552 71.3877 45.9669 71.711 46.2044C72.0378 46.442 72.3974 46.5645 72.7896 46.5718L72.8495 46.5777L72.8495 46.8294ZM67.2276 42.9643C67.2929 42.9604 67.5018 42.9569 67.854 42.9537C68.5295 42.9466 69.0162 42.8169 69.314 42.5645C69.6336 42.2977 69.7934 41.8609 69.7934 41.2542C69.7934 40.483 69.5482 39.9786 69.058 39.741C68.7565 39.5948 68.3062 39.5217 67.707 39.5217C67.5653 39.5217 67.4055 39.529 67.2276 39.5437V42.9643Z" fill="white"></path>
    <path d="M77.1002 41.0345H76.8496L76.8877 39.2363H84.1058L84.144 41.0345H83.9097C83.8226 40.5156 83.6846 40.1245 83.4957 39.8613C83.3831 39.7042 83.2469 39.6036 83.0872 39.5598C82.931 39.5122 82.6459 39.4885 82.2319 39.4885H81.0388V44.7735C81.0388 45.2742 81.0461 45.6087 81.0606 45.7768C81.0752 45.9413 81.1097 46.0747 81.1641 46.177C81.2658 46.3707 81.5382 46.4676 81.9813 46.4676H82.3463V46.7198H78.631V46.4676H79.0178C79.4608 46.4676 79.7332 46.3707 79.8349 46.177C79.8894 46.0747 79.9239 45.9413 79.9384 45.7768C79.9566 45.6123 79.9657 45.2779 79.9657 44.7735V39.4885H78.8598C78.4022 39.4885 78.0953 39.5086 77.9391 39.5488C77.7866 39.5854 77.654 39.6767 77.5415 39.823C77.3345 40.0861 77.1874 40.49 77.1002 41.0345Z" fill="white"></path>
    <path d="M93.8481 39.2367H96.3377V39.4889L96.2342 39.4995C95.7984 39.5324 95.5078 39.6987 95.3626 39.9984C95.3081 40.1044 95.2754 40.2122 95.2645 40.3218C95.2536 40.4315 95.2482 40.6782 95.2482 41.062V43.551C95.2482 44.1065 95.2373 44.4738 95.2155 44.6529C95.132 45.3949 94.8033 45.9577 94.2295 46.3415C93.7138 46.6851 93.0491 46.8569 92.2356 46.8569C91.2078 46.8569 90.4234 46.5754 89.8823 46.0126C89.6752 45.7969 89.5282 45.5484 89.441 45.267C89.3538 44.9855 89.3103 44.6219 89.3103 44.176L89.3158 43.4304V41.1003C89.3158 40.5667 89.3049 40.2158 89.2831 40.0477C89.2613 39.8796 89.2105 39.7498 89.1306 39.6585C89.0652 39.589 88.9798 39.5433 88.8745 39.5214C88.7728 39.4995 88.5858 39.4885 88.3134 39.4885H88.1445V39.2363H91.5384V39.4885H91.3913C91.108 39.4885 90.9137 39.5013 90.8084 39.5269C90.7067 39.5489 90.6232 39.6019 90.5578 39.6859C90.4852 39.7773 90.438 39.9052 90.4162 40.0697C90.398 40.2342 90.389 40.5777 90.389 41.1004V43.4578C90.389 44.134 90.4053 44.6 90.438 44.8558C90.507 45.415 90.7412 45.8299 91.1407 46.1003C91.5148 46.3525 91.967 46.4786 92.4972 46.4786C93.071 46.4786 93.574 46.3507 94.0062 46.0949C94.5328 45.7842 94.8433 45.3109 94.9377 44.6749C94.9632 44.4922 94.9759 44.1048 94.9759 43.5127V40.9633C94.9759 40.6307 94.9668 40.3987 94.9486 40.2671C94.9305 40.1355 94.8923 40.0185 94.8342 39.9162C94.689 39.664 94.3803 39.5233 93.9081 39.4941L93.8482 39.4882L93.8481 39.2367Z" fill="white"></path>
    <path d="M104.947 43.6661H108.155V43.9293H108.074C107.63 43.9293 107.358 44.0261 107.256 44.2198C107.198 44.3222 107.162 44.4556 107.147 44.62C107.133 44.7845 107.126 45.1153 107.126 45.6124V46.4073C107.024 46.3927 106.942 46.3854 106.88 46.3854C106.608 46.3854 106.239 46.4731 105.775 46.6485C105.154 46.8824 104.58 46.9994 104.053 46.9994C103.399 46.9994 102.791 46.8532 102.228 46.5608C101.589 46.2246 101.101 45.7293 100.763 45.0751C100.48 44.5195 100.338 43.9165 100.338 43.2659C100.338 42.5057 100.525 41.7802 100.899 41.0894C101.28 40.384 101.821 39.8741 102.522 39.5598C102.995 39.3441 103.517 39.2363 104.091 39.2363C105.079 39.2363 105.9 39.6055 106.554 40.3438C106.673 40.0952 106.752 39.8175 106.788 39.5104H107.049V42.0104H106.788C106.701 41.4037 106.499 40.892 106.183 40.4754C105.951 40.1683 105.662 39.9308 105.317 39.7626C104.976 39.5945 104.607 39.5104 104.211 39.5104C103.768 39.5104 103.358 39.6128 102.98 39.8175C102.424 40.1245 102.041 40.5941 101.831 41.2265C101.671 41.7053 101.591 42.3266 101.591 43.0905C101.591 44.4172 101.86 45.3748 102.397 45.9632C102.611 46.1971 102.88 46.3836 103.203 46.5224C103.53 46.6577 103.864 46.7253 104.206 46.7253C104.703 46.7253 105.134 46.5956 105.497 46.3361C105.864 46.0766 106.047 45.6837 106.047 45.1573V44.8722C106.047 44.4921 105.989 44.2363 105.873 44.1047C105.807 44.0316 105.727 43.9841 105.633 43.9621C105.542 43.9402 105.372 43.9293 105.121 43.9293H104.947L104.947 43.6661Z" fill="white"></path>
    <path d="M116.999 44.0719H114.177L113.981 44.5433C113.796 44.9929 113.678 45.2963 113.627 45.4534C113.576 45.6106 113.551 45.7568 113.551 45.892C113.551 46.0894 113.618 46.2539 113.752 46.3854C113.89 46.5134 114.063 46.5773 114.27 46.5773H114.368V46.8295H112.156V46.5773L112.254 46.5608C112.632 46.4987 112.93 46.2574 113.148 45.8371C113.159 45.8152 113.355 45.3474 113.736 44.4337L115.893 39.2363H116.111L118.601 45.1847C118.851 45.7805 119.009 46.1222 119.075 46.2099C119.238 46.4256 119.469 46.5462 119.767 46.5718L119.832 46.5777V46.8299H116.907V46.5777H116.999C117.279 46.5777 117.475 46.5557 117.588 46.5119C117.744 46.457 117.822 46.3456 117.822 46.1775C117.822 46.0971 117.795 45.9892 117.74 45.854L117.571 45.4538L116.999 44.0719ZM116.907 43.8197L115.594 40.6344L114.281 43.8197H116.907Z" fill="white"></path>
    <path d="M129.374 44.5159L129.319 46.7198H123V46.4676H123.218C123.661 46.4676 123.933 46.3708 124.035 46.1771C124.093 46.0747 124.129 45.9413 124.144 45.7768C124.159 45.6087 124.166 45.2743 124.166 44.7736V41.1003C124.166 40.5631 124.155 40.2122 124.133 40.0477C124.111 39.8796 124.059 39.7499 123.975 39.6585C123.91 39.589 123.826 39.5433 123.725 39.5214C123.623 39.4995 123.436 39.4885 123.163 39.4885H123V39.2363H126.574V39.4885H126.241C125.958 39.4885 125.764 39.5013 125.658 39.527C125.553 39.5489 125.47 39.6019 125.408 39.6859C125.335 39.7773 125.288 39.9052 125.266 40.0697C125.248 40.2342 125.239 40.5778 125.239 41.1004V45.0203C125.243 45.5101 125.25 45.8098 125.261 45.9194C125.272 46.0254 125.308 46.1241 125.37 46.2155C125.439 46.3105 125.544 46.3763 125.686 46.4128C125.827 46.4494 126.051 46.4677 126.356 46.4677H126.922C127.402 46.4677 127.747 46.4238 127.957 46.3361C128.459 46.1241 128.844 45.5174 129.112 44.5159L129.374 44.5159Z" fill="white"></path>
  </g>
  <defs>
    <clipPath id="clip0_369_2854">
      <rect width="132" height="47" fill="white"></rect>
    </clipPath>
  </defs>
</svg>
