<?xml version="1.0" encoding="UTF-8"?>
<svg xmlns="http://www.w3.org/2000/svg" width="171" height="64" viewBox="0 0 171 64" fill="none">
  <g clip-path="url(#clip0_2001_1028)">
    <path d="M27.5367 60.7844C25.2012 57.2214 24.8361 55.6055 24.8361 48.8351C24.8361 41.7368 24.7771 41.6063 21.4197 41.2732C17.6834 40.9025 14.6316 43.406 14.6316 46.8419C14.6316 48.5976 14.8414 49.0567 16.2537 50.3932C18.0235 52.0683 19.34 52.3089 20.8313 51.2301C22.164 50.2661 22.1176 49.1374 20.7598 49.4893C19.407 49.8399 18.1388 48.1879 18.7927 46.9262C19.8187 44.9466 22.8096 46.6905 22.8096 49.2685C22.8096 52.4587 18.4083 53.8729 15.928 51.4799C13.3912 49.032 12.8986 46.3268 14.5334 43.8215C16.586 40.6761 20.0838 39.4487 23.3454 40.7292L24.5166 41.1891L24.2188 38.8704C23.8198 35.765 22.7192 33.6738 20.2424 31.3163L18.181 29.354L17.6756 31.1216C16.9484 33.6653 15.9586 35.0315 14.0336 36.1487C10.7837 38.0349 7.03748 37.0219 5.58661 33.8645C4.73038 32.0011 4.66648 30.4397 5.38021 28.8221C5.93095 27.5738 7.75863 26.3683 9.10031 26.3683C10.0748 26.3683 11.637 27.7925 12.0164 29.0267C12.3722 30.1845 11.5549 31.7513 10.5997 31.7425C8.78921 31.7251 7.96547 29.8891 9.19776 28.6166C10.1813 27.601 9.66128 27.0494 8.1014 27.4537C6.97244 27.7462 5.72992 29.7621 5.72992 31.3009C5.72992 33.8219 8.21715 36.2334 10.8173 36.2334C13.6889 36.2334 16.9953 32.8341 17.0127 29.8636C17.0194 28.6101 16.8506 28.4827 9.20374 24.0022C6.59283 22.4723 4.76725 20.4245 3.11995 17.1775L1.75586 14.4887L2.76588 14.1954C6.57241 13.0896 10.7059 14.1352 16.4322 17.653C19.016 19.2402 21.3392 20.5389 21.595 20.5389C22.309 20.5389 24.6994 17.763 25.0702 16.5031C25.8442 13.8746 24.875 10.3098 23.1232 9.34166C22.6636 9.08772 21.3867 8.87989 20.2854 8.87989C17.5957 8.87989 16.0377 10.3779 16.2341 12.7753C16.3757 14.5043 17.454 15.4681 17.454 13.8657C17.454 12.6059 18.9176 11.8362 20.0856 12.4817C21.4126 13.2151 21.0656 15.2374 19.5167 15.7966C15.3326 17.3073 13.4272 11.1036 17.351 8.74543C21.5526 6.22023 26.2388 9.10587 26.2388 14.2183C26.2388 16.6617 25.7201 17.916 23.8766 19.929L22.5871 21.337L24.9056 22.139C26.1809 22.5802 28.1036 22.9411 29.1782 22.9411C30.253 22.9411 32.1757 22.5802 33.4508 22.139L35.7694 21.337L34.48 19.929C32.6365 17.916 32.1176 16.6617 32.1176 14.2183C32.1176 9.10587 36.804 6.22023 41.0056 8.74543C44.9294 11.1036 43.024 17.3073 38.8399 15.7966C37.291 15.2374 36.9439 13.2151 38.2711 12.4817C39.439 11.8362 40.9024 12.6058 40.9024 13.8657C40.9024 15.4681 41.9807 14.5043 42.1224 12.7753C42.3189 10.3779 40.7609 8.87989 38.0712 8.87989C36.9699 8.87989 35.693 9.08776 35.2334 9.34166C33.4816 10.3098 32.5124 13.8746 33.2864 16.5031C33.6475 17.7299 36.0402 20.5389 36.7241 20.5389C36.9592 20.5389 39.1911 19.2924 41.6837 17.7689C47.5604 14.1772 51.7884 13.0908 55.5907 14.1954L56.6008 14.4887L55.2366 17.1775C53.5893 20.4245 51.7638 22.4723 49.1528 24.0022C41.506 28.4827 41.3365 28.6101 41.3438 29.8636C41.3553 31.6793 43.0929 34.4619 44.8038 35.4021C48.9281 37.6685 53.4382 34.4747 52.3687 30.0449C51.9381 28.2616 50.2211 26.9179 48.994 27.4042C48.3317 27.6666 48.3446 27.7756 49.1332 28.5901C50.3896 29.8875 49.587 31.7256 47.7569 31.7425C46.8016 31.753 45.9844 30.1845 46.3403 29.0267C46.7196 27.7925 48.2817 26.3683 49.2562 26.3683C50.5979 26.3683 52.4256 27.5738 52.9764 28.8221C53.6901 30.4397 53.6263 32.0011 52.77 33.8645C51.3191 37.0219 47.5729 38.0349 44.3231 36.1487C42.398 35.0315 41.4082 33.6653 40.681 31.1216L40.1755 29.354L38.1141 31.3163C35.6375 33.6738 34.5368 35.765 34.1379 38.8704L33.8401 41.1891L35.0112 40.7292C38.2727 39.4487 41.7707 40.6761 43.8231 43.8215C45.458 46.3268 44.9654 49.032 42.4285 51.4799C39.9484 53.8729 35.547 52.4587 35.547 49.2685C35.547 46.6905 38.5379 44.9466 39.5639 46.9262C40.2176 48.1879 38.9496 49.8399 37.5968 49.4893C36.239 49.1374 36.1926 50.2661 37.5252 51.2301C39.0166 52.3089 40.3329 52.0683 42.1029 50.3932C43.5153 49.0567 43.7249 48.5976 43.7249 46.8419C43.7249 43.406 40.6732 40.9025 36.9369 41.2732C33.5941 41.6049 33.5205 41.7627 33.5205 48.6043C33.5205 52.9464 33.3271 55.1758 32.8152 56.7331C32.0602 59.0302 29.8255 62.6902 29.1782 62.6902C28.9624 62.6902 28.2237 61.8326 27.5367 60.7844ZM31.1323 58.4295C32.368 55.9445 32.4424 55.485 32.5781 49.5071C32.7191 43.2991 32.7086 43.2165 31.8809 43.9899C31.4188 44.4218 30.6748 45.4766 30.2278 46.3338C29.7809 47.191 29.3086 47.8924 29.1784 47.8924C29.0482 47.8924 28.5759 47.191 28.1288 46.3338C27.6818 45.4766 26.9535 44.4364 26.5102 44.0223C25.7295 43.2926 25.7045 43.4434 25.7045 48.8876C25.7045 54.762 26.1285 56.8562 27.9257 59.8593C28.4285 60.6995 29.0626 61.3108 29.3349 61.218C29.607 61.1255 30.4159 59.8704 31.1323 58.4295ZM21.1451 47.8611C21.1451 47.5151 20.8032 47.164 20.3851 47.0809C19.6367 46.9323 19.3272 47.8836 19.9238 48.4997C20.3789 48.9696 21.1451 48.5691 21.1451 47.8611ZM38.6547 47.7431C38.7359 47.3107 38.518 46.9956 38.1375 46.9956C37.3307 46.9956 36.8439 47.7266 37.2258 48.3645C37.6185 49.0208 38.4854 48.6437 38.6547 47.7431ZM31.2889 43.2689C32.4566 41.8676 33.0863 40.6783 33.0863 39.8749C33.0863 39.1948 33.3953 37.5424 33.7729 36.2028C34.335 34.2085 34.9841 33.2449 37.3553 30.8843C39.577 28.6726 40.4607 27.4085 41.1514 25.4541L42.0517 22.9067L39.3326 22.3893C36.8107 21.9096 36.3674 21.958 33.2216 23.057C30.0624 24.1607 29.6521 24.2047 27.2422 23.6988C25.819 23.3999 24.091 22.8545 23.402 22.4865C22.3438 21.9215 21.6952 21.9014 19.2255 22.3572L16.3014 22.8967L17.2034 25.449C17.8961 27.409 18.7775 28.6705 21.0013 30.8843C23.3725 33.2449 24.0216 34.2084 24.5837 36.2027C24.9613 37.5423 25.2703 39.1865 25.2703 39.8561C25.2703 41.0112 28.5933 45.7765 29.2264 45.5295C29.3722 45.4727 30.3004 44.4554 31.2889 43.2689ZM11.1578 29.9557C11.1578 29.5925 10.8159 29.2273 10.3979 29.1442C9.86475 29.0381 9.63802 29.2802 9.63802 29.9557C9.63802 30.6311 9.86475 30.8732 10.3979 30.7671C10.8159 30.6839 11.1578 30.3188 11.1578 29.9557ZM48.7186 29.9557C48.7186 29.4624 48.4371 29.0587 48.0929 29.0587C47.3258 29.0587 46.8354 29.7968 47.1988 30.404C47.6711 31.1932 48.7186 30.884 48.7186 29.9557ZM15.5639 23.8947L14.4757 21.8842L16.2905 21.8393C17.2888 21.8148 18.5939 21.6527 19.191 21.4792L20.2767 21.1641L19.191 20.4559C14.9886 17.7142 11.7307 15.9321 9.88854 15.3672C7.57074 14.6564 3.74527 14.4834 3.39216 15.0734C3.07345 15.6059 5.44099 19.671 6.88045 21.063C7.56121 21.7213 9.97455 23.3667 12.2434 24.7192C16.8299 27.4535 17.4118 27.3091 15.5639 23.8947ZM47.6839 23.7521C49.3835 22.7412 51.3853 21.1956 52.132 20.3171C53.7102 18.4609 55.3168 15.3948 54.9239 14.989C54.4293 14.478 50.6443 14.6997 48.468 15.3671C46.626 15.9321 43.368 17.7142 39.1656 20.4559L38.08 21.1641L39.1656 21.4794C39.7627 21.6527 41.0704 21.8148 42.0715 21.8393L43.8917 21.8842L42.8365 23.7899C42.2562 24.8382 41.7791 26.0653 41.7762 26.5171C41.7713 27.3023 41.833 27.3 43.1822 26.4644C43.9584 25.9836 45.9841 24.763 47.6839 23.7521ZM19.9828 14.1117C20.0774 13.6077 19.83 13.3641 19.2229 13.3641C18.7278 13.3641 18.3226 13.6332 18.3226 13.962C18.3226 15.3354 19.7292 15.4622 19.9828 14.1117ZM39.9573 14.1117C40.052 13.6077 39.8045 13.3641 39.1974 13.3641C38.7022 13.3641 38.2972 13.6332 38.2972 13.962C38.2972 15.3354 39.7037 15.4622 39.9573 14.1117ZM10.0681 48.5539C9.45445 46.8871 9.52355 46.37 10.538 45.0383C11.6562 43.5702 12.128 43.553 12.7477 44.9576C13.3355 46.2896 12.575 48.5745 11.3113 49.2729C10.6396 49.6441 10.4235 49.5191 10.0681 48.5539ZM12.2434 46.013C12.2434 45.567 12.0549 45.202 11.8244 45.202C11.1642 45.202 10.4103 46.9877 10.7212 47.8153C10.9758 48.4935 11.062 48.4818 11.6231 47.6945C11.9642 47.2158 12.2434 46.4592 12.2434 46.013ZM46.602 48.8455C45.4336 47.639 45.0457 45.9757 45.6574 44.7952C46.3004 43.5545 46.7316 43.611 47.8526 45.0828C48.5354 45.9793 48.7169 46.6687 48.5274 47.6472C48.1514 49.5882 47.6333 49.9106 46.602 48.8455ZM47.5003 46.3351C47.2253 45.7118 46.8008 45.202 46.5567 45.202C45.9949 45.202 45.9965 45.7235 46.5636 47.2637C46.8997 48.1766 47.139 48.3578 47.507 47.9777C47.8751 47.5976 47.8734 47.1809 47.5003 46.3351ZM5.07621 45.1979C4.2727 43.8552 6.57469 41.2592 8.91671 40.8668C10.7651 40.557 11.3641 41.4192 10.5626 43.2358C9.80551 44.9519 5.78862 46.3882 5.07621 45.1979ZM9.28385 43.5576C10.3141 42.5947 10.2905 41.6145 9.23708 41.6145C8.31395 41.6145 5.72992 43.6676 5.72992 44.4009C5.72992 45.0677 8.32756 44.451 9.28385 43.5576ZM49.696 44.992C48.1506 44.2873 47.1412 42.5523 47.5837 41.3615C48.3117 39.4022 53.8024 42.528 53.4079 44.6774C53.2283 45.6568 51.479 45.8051 49.696 44.992ZM52.6268 44.3449C52.6268 43.6552 50.0055 41.6145 49.1195 41.6145C48.0774 41.6145 48.0382 42.5992 49.0444 43.5044C50.3138 44.6463 52.6268 45.189 52.6268 44.3449ZM5.93198 39.8425C5.44605 39.6392 4.76951 39.1257 4.42858 38.7015C3.8839 38.0236 3.90898 37.8544 4.6352 37.3061C5.89892 36.3518 7.38634 36.5579 8.64965 37.8626C9.748 38.9967 9.76104 39.0673 8.98115 39.6562C8.07506 40.3404 7.2429 40.3912 5.93198 39.8425ZM8.10474 38.9465C8.46578 38.3433 6.67591 37.4514 5.80459 37.8004C5.14798 38.0634 5.15914 38.1525 5.92143 38.7317C6.8962 39.4726 7.74019 39.5556 8.10474 38.9465ZM49.4011 39.684C48.5856 39.0599 48.5936 39.0125 49.707 37.8626C50.9796 36.5484 52.4647 36.3518 53.7378 37.3287C54.5709 37.9678 54.5706 37.986 53.7108 38.8872C52.5417 40.1124 50.4629 40.4969 49.4011 39.684ZM52.4352 38.7317C53.1975 38.1525 53.2087 38.0634 52.5521 37.8004C51.6808 37.4514 49.8909 38.3433 50.2519 38.9465C50.6166 39.5556 51.4604 39.4726 52.4352 38.7317ZM18.0551 37.3809C17.4036 35.6277 18.9929 33.809 20.3851 34.7145C22.0249 35.7809 21.3172 38.0272 19.3414 38.0272C18.7661 38.0272 18.1872 37.7364 18.0551 37.3809ZM20.2767 36.2274C20.2767 35.2662 19.0149 35.405 18.8319 36.386C18.7201 36.9852 18.897 37.1679 19.4773 37.0525C19.917 36.9649 20.2767 36.594 20.2767 36.2274ZM37.4642 37.3989C36.7726 36.5384 36.9977 35.3478 37.9715 34.7145C39.0854 33.99 40.2511 34.9065 40.2511 36.5066C40.2511 37.5671 40.0469 37.8276 39.1285 37.9377C38.511 38.0117 37.762 37.7693 37.4642 37.3989ZM39.5998 36.4842C39.5998 35.6075 38.7581 35.1297 38.2103 35.6954C37.9653 35.9485 37.8962 36.3747 38.0567 36.6428C38.4823 37.3542 39.5998 37.239 39.5998 36.4842ZM27.8954 20.3393C27.6091 19.983 27.4386 19.2263 27.5166 18.6578C27.634 17.8034 27.922 17.6242 29.1784 17.6242C30.4346 17.6242 30.7227 17.8034 30.8401 18.6578C31.0099 19.8951 30.2309 20.9874 29.1784 20.9874C28.7592 20.9874 28.1819 20.6957 27.8954 20.3393ZM29.9701 19.0443C30.0648 18.5403 29.8172 18.2968 29.2101 18.2968C28.715 18.2968 28.3098 18.5658 28.3098 18.8947C28.3098 20.2681 29.7164 20.3948 29.9701 19.0443ZM23.8177 7.871C23.231 7.3161 22.6301 6.30714 22.4826 5.62892C22.2479 4.55094 22.3444 4.39577 23.2494 4.39577C24.8576 4.39577 26.573 6.03257 26.573 7.56726C26.573 9.21062 25.3738 9.34281 23.8177 7.871ZM24.8019 6.0708C24.0529 5.4444 23.7268 5.36597 23.5931 5.78009C23.4925 6.09197 23.8716 6.73314 24.4359 7.20496C25.1849 7.83134 25.5111 7.90978 25.6447 7.49564C25.7455 7.1838 25.3661 6.54257 24.8019 6.0708ZM28.16 8.05993C27.2254 6.99351 27.2388 4.21569 28.1864 2.55915C28.596 1.84291 29.0425 1.25684 29.1782 1.25684C29.3141 1.25684 29.7605 1.84291 30.1703 2.55915C31.1693 4.30578 31.1439 7.18188 30.1211 8.13785C29.1278 9.06621 29.0388 9.06266 28.16 8.05993ZM29.8297 5.25525C29.8297 3.79371 29.659 3.27472 29.1784 3.27472C28.4893 3.27472 28.0374 5.70607 28.4966 6.94207C28.9956 8.28492 29.8297 7.22951 29.8297 5.25525ZM31.7837 7.56726C31.7837 6.03257 33.499 4.39577 35.1072 4.39577C36.0123 4.39577 36.1088 4.55086 35.874 5.62892C35.5499 7.11819 33.7908 8.87996 32.6279 8.87996C31.9841 8.87996 31.7837 8.56846 31.7837 7.56726ZM34.763 5.93601C34.9088 5.17364 34.849 5.16552 33.8944 5.81898C33.3306 6.20501 32.7987 6.88938 32.7124 7.33974C32.5666 8.10219 32.6265 8.11022 33.581 7.45675C34.1449 7.07076 34.6767 6.38638 34.763 5.93601Z" fill="#E9A900" stroke="#E9A900" stroke-width="2.38023"></path>
    <path d="M159.619 52.0681V37.5H161.409V50.4359H167.612V52.0681H159.619Z" fill="white"></path>
    <path d="M155.829 52.0689L154.119 47.5598H148.492L146.802 52.0689H144.992L150.54 37.4395H152.15L157.678 52.0689H155.829ZM151.991 41.5202C151.952 41.4114 151.885 41.2141 151.793 40.9285C151.7 40.6429 151.607 40.3504 151.514 40.0512C151.435 39.7384 151.368 39.5002 151.315 39.337C151.249 39.6091 151.176 39.888 151.097 40.1736C151.03 40.4457 150.957 40.6972 150.878 40.9285C150.812 41.1598 150.752 41.357 150.699 41.5202L149.088 45.9274H153.582L151.991 41.5202Z" fill="white"></path>
    <path d="M138.618 44.377H143.53V51.5183C142.761 51.7768 141.985 51.9671 141.203 52.0896C140.421 52.212 139.533 52.2732 138.539 52.2732C137.067 52.2732 135.828 51.974 134.82 51.3754C133.813 50.7634 133.044 49.8996 132.514 48.7841C131.997 47.6552 131.738 46.3222 131.738 44.785C131.738 43.2616 132.03 41.9422 132.613 40.8267C133.196 39.7114 134.032 38.8476 135.119 38.2356C136.219 37.6098 137.544 37.2969 139.095 37.2969C139.891 37.2969 140.64 37.3718 141.342 37.5214C142.058 37.6711 142.721 37.8819 143.331 38.1539L142.655 39.7454C142.151 39.5141 141.581 39.3169 140.945 39.1537C140.322 38.9905 139.672 38.9088 138.996 38.9088C137.869 38.9088 136.901 39.1468 136.093 39.623C135.284 40.0991 134.668 40.7792 134.244 41.6633C133.819 42.5339 133.607 43.5744 133.607 44.785C133.607 45.9413 133.786 46.9682 134.144 47.866C134.515 48.7501 135.092 49.4439 135.874 49.9471C136.656 50.4368 137.684 50.6817 138.956 50.6817C139.38 50.6817 139.752 50.6681 140.07 50.641C140.401 50.6 140.699 50.5526 140.964 50.4981C141.243 50.4437 141.501 50.3892 141.74 50.3349V46.0092H138.618V44.377Z" fill="white"></path>
    <path d="M128.706 46.9263C128.706 47.933 128.507 48.8444 128.109 49.6605C127.711 50.463 127.102 51.1024 126.28 51.5784C125.471 52.0409 124.437 52.2722 123.178 52.2722C121.415 52.2722 120.069 51.7825 119.142 50.8032C118.227 49.8101 117.77 48.5042 117.77 46.8856V37.5H119.559V46.9468C119.559 48.1302 119.864 49.0483 120.474 49.7013C121.097 50.3542 122.031 50.6807 123.277 50.6807C124.139 50.6807 124.835 50.5242 125.365 50.2114C125.909 49.8849 126.306 49.4428 126.558 48.8851C126.81 48.3139 126.936 47.6609 126.936 46.9263V37.5H128.706V46.9263Z" fill="white"></path>
    <path d="M111.353 52.0681H109.563V39.1118H105.129V37.5H115.767V39.1118H111.353V52.0681Z" fill="white"></path>
    <path d="M98.4034 37.5C99.5833 37.5 100.551 37.6563 101.307 37.9693C102.075 38.2685 102.645 38.7242 103.017 39.3362C103.388 39.9484 103.573 40.7169 103.573 41.6418C103.573 42.4172 103.434 43.0633 103.156 43.5802C102.877 44.0971 102.519 44.512 102.082 44.8248C101.658 45.124 101.207 45.3622 100.73 45.539L104.627 52.0681H102.539L99.0993 46.049H96.2759V52.0681H94.4863V37.5H98.4034ZM98.304 39.0915H96.2759V44.4984H98.4034C99.1722 44.4984 99.802 44.3963 100.292 44.1923C100.783 43.9746 101.141 43.6618 101.366 43.2538C101.605 42.8457 101.724 42.3355 101.724 41.7235C101.724 41.0842 101.598 40.5741 101.346 40.1932C101.108 39.8123 100.736 39.5334 100.233 39.3567C99.7291 39.1799 99.0861 39.0915 98.304 39.0915Z" fill="white"></path>
    <path d="M91.3439 44.7645C91.3439 45.8936 91.2046 46.9206 90.9263 47.8455C90.6479 48.7569 90.2303 49.5459 89.6736 50.2124C89.1302 50.8789 88.4474 51.3889 87.6256 51.7427C86.8169 52.0962 85.8757 52.2732 84.802 52.2732C83.6885 52.2732 82.7209 52.0962 81.899 51.7427C81.077 51.3754 80.3943 50.8652 79.8509 50.2124C79.3074 49.5459 78.903 48.75 78.6379 47.8251C78.3728 46.9001 78.2402 45.8732 78.2402 44.7441C78.2402 43.2478 78.4789 41.942 78.9561 40.8266C79.4334 39.7113 80.1558 38.8407 81.1235 38.2149C82.1045 37.5893 83.3372 37.2764 84.822 37.2764C86.2404 37.2764 87.4334 37.5893 88.401 38.2149C89.3688 38.8271 90.0978 39.6977 90.5883 40.8266C91.092 41.942 91.3439 43.2547 91.3439 44.7645ZM80.1292 44.7645C80.1292 45.9887 80.2949 47.043 80.6264 47.927C80.9577 48.8113 81.4682 49.4914 82.1574 49.9675C82.8599 50.4435 83.7416 50.6817 84.802 50.6817C85.8757 50.6817 86.7507 50.4435 87.4267 49.9675C88.1161 49.4914 88.6264 48.8113 88.9577 47.927C89.2892 47.043 89.4549 45.9887 89.4549 44.7645C89.4549 42.9282 89.0837 41.4932 88.3414 40.4593C87.5991 39.4119 86.4259 38.8883 84.822 38.8883C83.7481 38.8883 82.8599 39.1263 82.1574 39.6025C81.4682 40.0649 80.9577 40.7383 80.6264 41.6225C80.2949 42.4929 80.1292 43.5403 80.1292 44.7645Z" fill="white"></path>
    <path d="M70.674 37.5C72.53 37.5 73.882 37.874 74.7305 38.622C75.5788 39.3702 76.0031 40.4245 76.0031 41.7847C76.0031 42.3832 75.9036 42.9613 75.7048 43.5189C75.5191 44.063 75.2076 44.5528 74.7702 44.988C74.3328 45.4234 73.7495 45.7702 73.0205 46.0287C72.2914 46.2734 71.3966 46.3958 70.336 46.3958H68.7056V52.0681H66.916V37.5H70.674ZM70.515 39.071H68.7056V44.8248H70.1373C71.0387 44.8248 71.7876 44.7295 72.3842 44.5392C72.9806 44.3351 73.4247 44.0156 73.7163 43.5802C74.0081 43.1449 74.1538 42.5737 74.1538 41.8662C74.1538 40.9277 73.8623 40.2273 73.2789 39.7647C72.6957 39.3023 71.7744 39.071 70.515 39.071Z" fill="white"></path>
    <path d="M170.925 22.4257C170.925 23.2825 170.719 24.0307 170.309 24.6701C169.898 25.3094 169.301 25.8059 168.52 26.1596C167.751 26.4996 166.81 26.6696 165.696 26.6696C165.205 26.6696 164.722 26.6356 164.245 26.5676C163.781 26.4996 163.329 26.4043 162.892 26.2819C162.468 26.1458 162.064 25.9826 161.68 25.7923V22.9154C162.354 23.2146 163.052 23.4935 163.768 23.7518C164.497 23.9967 165.218 24.1191 165.934 24.1191C166.425 24.1191 166.816 24.0512 167.108 23.9152C167.413 23.7791 167.631 23.5955 167.764 23.3642C167.909 23.1329 167.982 22.8678 167.982 22.5686C167.982 22.2012 167.856 21.8883 167.604 21.63C167.366 21.3715 167.041 21.1334 166.631 20.9158C166.219 20.6846 165.749 20.4397 165.218 20.1812C164.888 20.018 164.529 19.8275 164.144 19.61C163.76 19.3787 163.39 19.0999 163.031 18.7734C162.686 18.4333 162.402 18.0252 162.176 17.5492C161.951 17.0731 161.838 16.5018 161.838 15.8353C161.838 14.9647 162.031 14.2234 162.415 13.6113C162.812 12.9856 163.369 12.5095 164.085 12.183C164.814 11.8566 165.669 11.6934 166.65 11.6934C167.392 11.6934 168.095 11.7818 168.757 11.9586C169.434 12.1354 170.137 12.3871 170.866 12.7135L169.892 15.1212C169.242 14.8491 168.658 14.6383 168.142 14.4887C167.625 14.339 167.094 14.2642 166.551 14.2642C166.18 14.2642 165.862 14.3254 165.596 14.4478C165.331 14.5703 165.125 14.7403 164.98 14.9579C164.848 15.1756 164.781 15.434 164.781 15.7333C164.781 16.0733 164.881 16.3658 165.079 16.6107C165.278 16.8419 165.577 17.0663 165.974 17.2839C166.371 17.5016 166.869 17.76 167.465 18.0592C168.194 18.413 168.812 18.7803 169.314 19.161C169.831 19.5419 170.23 19.9909 170.507 20.5078C170.786 21.0245 170.925 21.6639 170.925 22.4257Z" fill="white"></path>
    <path d="M152.567 11.8975C153.853 11.8975 154.914 12.0607 155.749 12.3872C156.584 12.7 157.207 13.1829 157.618 13.8358C158.029 14.4751 158.234 15.2845 158.234 16.2638C158.234 16.9303 158.108 17.5153 157.857 18.0185C157.618 18.5082 157.293 18.9299 156.882 19.2836C156.485 19.6237 156.054 19.9025 155.59 20.1202L159.765 26.4656H156.425L153.045 20.8751H151.434V26.4656H148.432V11.8975H152.567ZM152.349 14.4275H151.434V18.3655H152.408C153.071 18.3655 153.608 18.2907 154.019 18.1409C154.43 17.9913 154.728 17.7669 154.914 17.4677C155.099 17.1547 155.192 16.7807 155.192 16.3454C155.192 15.883 155.086 15.5157 154.874 15.2436C154.675 14.958 154.364 14.754 153.94 14.6315C153.528 14.4955 152.998 14.4275 152.349 14.4275Z" fill="white"></path>
    <path d="M144.498 19.1619C144.498 20.291 144.359 21.318 144.08 22.2429C143.815 23.1543 143.404 23.9431 142.847 24.6096C142.304 25.2763 141.601 25.7864 140.74 26.1399C139.891 26.4936 138.89 26.6704 137.737 26.6704C136.584 26.6704 135.576 26.4936 134.715 26.1399C133.866 25.7728 133.164 25.2626 132.607 24.6096C132.064 23.9431 131.653 23.1475 131.374 22.2225C131.109 21.2975 130.977 20.2706 130.977 19.1415C130.977 17.6317 131.215 16.319 131.692 15.2036C132.183 14.0882 132.925 13.2245 133.919 12.6124C134.927 11.9867 136.206 11.6738 137.757 11.6738C139.295 11.6738 140.561 11.9867 141.555 12.6124C142.549 13.2245 143.285 14.0951 143.762 15.2241C144.253 16.3395 144.498 17.6521 144.498 19.1619ZM134.138 19.1619C134.138 20.1822 134.264 21.0595 134.516 21.794C134.768 22.5286 135.159 23.0931 135.689 23.4876C136.219 23.8821 136.902 24.0793 137.737 24.0793C138.599 24.0793 139.288 23.8821 139.805 23.4876C140.335 23.0931 140.72 22.5286 140.958 21.794C141.21 21.0595 141.336 20.1822 141.336 19.1619C141.336 17.625 141.058 16.4211 140.501 15.5505C139.944 14.68 139.03 14.2447 137.757 14.2447C136.909 14.2447 136.219 14.4419 135.689 14.8364C135.159 15.2309 134.768 15.7954 134.516 16.5299C134.264 17.2644 134.138 18.1417 134.138 19.1619Z" fill="white"></path>
    <path d="M128.039 22.4257C128.039 23.2825 127.834 24.0307 127.423 24.6701C127.012 25.3094 126.415 25.8059 125.633 26.1596C124.864 26.4996 123.923 26.6696 122.81 26.6696C122.319 26.6696 121.835 26.6356 121.358 26.5676C120.894 26.4996 120.443 26.4043 120.006 26.2819C119.582 26.1458 119.177 25.9826 118.793 25.7923V22.9154C119.469 23.2146 120.165 23.4935 120.881 23.7518C121.61 23.9967 122.332 24.1191 123.048 24.1191C123.539 24.1191 123.93 24.0512 124.221 23.9152C124.526 23.7791 124.745 23.5955 124.878 23.3642C125.023 23.1329 125.096 22.8678 125.096 22.5686C125.096 22.2012 124.97 21.8883 124.718 21.63C124.48 21.3715 124.155 21.1334 123.744 20.9158C123.333 20.6846 122.863 20.4397 122.332 20.1812C122.001 20.018 121.643 19.8275 121.259 19.61C120.874 19.3787 120.503 19.0999 120.145 18.7734C119.8 18.4333 119.515 18.0252 119.29 17.5492C119.065 17.0731 118.952 16.5018 118.952 15.8353C118.952 14.9647 119.144 14.2234 119.529 13.6113C119.926 12.9856 120.483 12.5095 121.199 12.183C121.928 11.8566 122.783 11.6934 123.764 11.6934C124.506 11.6934 125.209 11.7818 125.872 11.9586C126.548 12.1354 127.25 12.3871 127.979 12.7135L127.005 15.1212C126.356 14.8491 125.772 14.6383 125.255 14.4887C124.738 14.339 124.208 14.2642 123.665 14.2642C123.293 14.2642 122.975 14.3254 122.71 14.4478C122.445 14.5703 122.24 14.7403 122.094 14.9579C121.961 15.1756 121.895 15.434 121.895 15.7333C121.895 16.0733 121.994 16.3658 122.193 16.6107C122.392 16.8419 122.69 17.0663 123.088 17.2839C123.486 17.5016 123.983 17.76 124.579 18.0592C125.308 18.413 125.925 18.7803 126.428 19.161C126.945 19.5419 127.343 19.9909 127.621 20.5078C127.9 21.0245 128.039 21.6639 128.039 22.4257Z" fill="white"></path>
    <path d="M116.251 26.4656H109.789V24.711L111.519 23.8948V14.4683L109.789 13.6522V11.8975H116.251V13.6522L114.522 14.4683V23.8948L116.251 24.711V26.4656Z" fill="white"></path>
    <path d="M108.155 11.8975L103.323 26.4656H100.042L95.2305 11.8975H98.2727L100.937 20.569C100.99 20.7186 101.063 20.9975 101.156 21.4056C101.262 21.8 101.368 22.2217 101.474 22.6705C101.58 23.1059 101.653 23.473 101.693 23.7724C101.733 23.473 101.799 23.1059 101.892 22.6705C101.998 22.2217 102.104 21.8 102.21 21.4056C102.316 20.9975 102.389 20.7186 102.428 20.569L105.113 11.8975H108.155Z" fill="white"></path>
    <path d="M93.2714 19.0387C93.2714 20.6709 92.9664 22.038 92.3566 23.1398C91.7469 24.2417 90.8587 25.0714 89.6922 25.6291C88.5389 26.1867 87.147 26.4656 85.5166 26.4656H81.5V11.8975H85.954C87.4387 11.8975 88.7244 12.1695 89.8115 12.7136C90.9117 13.2577 91.7602 14.0602 92.3566 15.1212C92.9664 16.1686 93.2714 17.4744 93.2714 19.0387ZM90.1495 19.1204C90.1495 18.0458 89.997 17.1616 89.6922 16.4679C89.3874 15.7741 88.93 15.2641 88.3202 14.9376C87.7236 14.5975 86.9879 14.4275 86.113 14.4275H84.5024V23.9151H85.7949C87.2663 23.9151 88.3599 23.514 89.0758 22.7114C89.7916 21.9089 90.1495 20.7119 90.1495 19.1204Z" fill="white"></path>
    <path d="M75.4673 26.4663L74.4333 22.9977H69.2634L68.2295 26.4663H64.9883L69.9991 11.8369H73.6777L78.7083 26.4663H75.4673ZM72.6834 17.0194C72.6172 16.7882 72.5309 16.4957 72.425 16.1421C72.3189 15.7884 72.2129 15.428 72.1068 15.0607C72.0007 14.6934 71.9146 14.3738 71.8484 14.1017C71.782 14.3738 71.6892 14.7138 71.5699 15.1219C71.4639 15.5164 71.3579 15.8972 71.2518 16.2645C71.159 16.6182 71.0861 16.8698 71.0331 17.0194L70.0191 20.4064H73.7174L72.6834 17.0194Z" fill="white"></path>
  </g>
  <defs>
    <clipPath id="clip0_2001_1028">
      <rect width="171" height="64" fill="white"></rect>
    </clipPath>
  </defs>
</svg>
