<?xml version="1.0" encoding="UTF-8"?>
<svg xmlns="http://www.w3.org/2000/svg" width="20" height="20" viewBox="0 0 20 20" fill="none">
  <path d="M11.3333 20V6.54638C11.3333 5.74199 11.4507 4.94191 11.6818 4.17145C12.1009 2.77436 13.0265 1.58405 14.2772 0.833607L14.3946 0.763217C15.2269 0.263807 16.1793 0 17.15 0H19.3333L19.128 0.0684222C16.8618 0.823815 15.3333 2.94457 15.3333 5.33333V9C15.3333 9.55229 15.781 10 16.3333 10H19.9999V20H11.3333Z" fill="#E9A900"></path>
  <path d="M0 20V6.54638C0 5.74199 0.117427 4.94191 0.348566 4.17145C0.767691 2.77436 1.69325 1.58405 2.94399 0.833607L3.06131 0.763217C3.89365 0.263807 4.84608 0 5.81676 0H8L7.79473 0.0684222C5.52856 0.823815 4 2.94457 4 5.33333V9C4 9.55229 4.44771 10 5 10H8.66667V20H0Z" fill="#E9A900"></path>
</svg>
