<?xml version="1.0" encoding="UTF-8"?>
<svg xmlns="http://www.w3.org/2000/svg" width="32" height="32" viewBox="0 0 32 32" fill="none">
  <path d="M21.0413 2.66699H10.9613C5.9213 2.66699 4.66797 4.01366 4.66797 9.38699V24.4003C4.66797 27.947 6.61464 28.787 8.97464 26.2537L8.98797 26.2403C10.0813 25.0803 11.748 25.1737 12.6946 26.4403L14.0413 28.2403C15.1213 29.667 16.868 29.667 17.948 28.2403L19.2946 26.4403C20.2546 25.1603 21.9213 25.067 23.0146 26.2403C25.388 28.7737 27.3213 27.9337 27.3213 24.387V9.38699C27.3346 4.01366 26.0813 2.66699 21.0413 2.66699ZM12.0013 9.33366C12.7346 9.33366 13.3346 9.93366 13.3346 10.667C13.3346 11.4003 12.748 12.0003 12.0013 12.0003C11.2546 12.0003 10.668 11.4003 10.668 10.667C10.668 9.93366 11.2546 9.33366 12.0013 9.33366ZM20.0013 18.667C19.2546 18.667 18.668 18.067 18.668 17.3337C18.668 16.6003 19.268 16.0003 20.0013 16.0003C20.7346 16.0003 21.3346 16.6003 21.3346 17.3337C21.3346 18.067 20.748 18.667 20.0013 18.667ZM21.2013 10.1203L12.228 19.0937C12.028 19.2937 11.7746 19.387 11.5213 19.387C11.268 19.387 11.0146 19.2937 10.8146 19.0937C10.428 18.707 10.428 18.067 10.8146 17.6803L19.788 8.70699C20.1746 8.32033 20.8146 8.32033 21.2013 8.70699C21.588 9.09366 21.588 9.73366 21.2013 10.1203Z" fill="#E9A900"></path>
</svg>
