<?xml version="1.0" encoding="UTF-8"?>
<svg xmlns="http://www.w3.org/2000/svg" width="36" height="36" viewBox="0 0 36 36" fill="none">
  <path d="M17.25 31.5C25.1201 31.5 31.5 25.1201 31.5 17.25C31.5 9.37994 25.1201 3 17.25 3C9.37994 3 3 9.37994 3 17.25C3 25.1201 9.37994 31.5 17.25 31.5Z" fill="currentColor"></path>
  <path d="M31.9501 32.9998C31.6801 32.9998 31.4101 32.8948 31.2151 32.6998L28.4251 29.9098C28.0201 29.5048 28.0201 28.8448 28.4251 28.4248C28.8301 28.0198 29.4901 28.0198 29.9101 28.4248L32.7001 31.2148C33.1051 31.6198 33.1051 32.2798 32.7001 32.6998C32.4901 32.8948 32.2201 32.9998 31.9501 32.9998Z" fill="currentColor"></path>
</svg>
