<?xml version="1.0" encoding="UTF-8"?>
<svg xmlns="http://www.w3.org/2000/svg" width="40" height="40" viewBox="0 0 40 40" fill="none">
  <g clip-path="url(#clip0_901_13860)">
    <path d="M0 0H60V40H0V0Z" fill="white"></path>
    <path d="M0 0H60V20H0V0Z" fill="#ED2939"></path>
    <path d="M12.6717 17.3614C16.7371 17.3614 20.0328 14.0657 20.0328 10.0003C20.0328 5.93484 16.7371 2.63916 12.6717 2.63916C8.60623 2.63916 5.31055 5.93484 5.31055 10.0003C5.31055 14.0657 8.60623 17.3614 12.6717 17.3614Z" fill="white"></path>
    <path d="M16.0056 17.3614C20.0711 17.3614 23.3668 14.0657 23.3668 10.0003C23.3668 5.93484 20.0711 2.63916 16.0056 2.63916C11.9402 2.63916 8.64453 5.93484 8.64453 10.0003C8.64453 14.0657 11.9402 17.3614 16.0056 17.3614Z" fill="#ED2939"></path>
    <path d="M16.6998 3.86084L15.5732 7.32812L18.5227 5.18522H14.877L17.8264 7.32812L16.6998 3.86084Z" fill="white"></path>
    <path d="M22.5379 8.10278L18.8922 8.10278L21.8416 10.2457L20.715 6.7784L19.5885 10.2457L22.5379 8.10278Z" fill="white"></path>
    <path d="M13.0917 14.9661L16.0411 12.8233L12.3954 12.8233L15.3449 14.9661L14.2183 11.4989L13.0917 14.9661Z" fill="white"></path>
    <path d="M20.3085 14.9665L19.1819 11.4992L18.0553 14.9665L21.0047 12.8236L17.359 12.8236L20.3085 14.9665Z" fill="white"></path>
    <path d="M10.8621 8.10327L13.8116 10.2462L12.685 6.77889L11.5584 10.2462L14.5078 8.10327L10.8621 8.10327Z" fill="white"></path>
  </g>
  <defs>
    <clipPath id="clip0_901_13860">
      <rect width="40" height="40" rx="20" fill="white"></rect>
    </clipPath>
  </defs>
</svg>
