<?xml version="1.0" encoding="UTF-8"?>
<svg xmlns="http://www.w3.org/2000/svg" width="24" height="24" viewBox="0 0 24 24" fill="none">
  <path fill-rule="evenodd" clip-rule="evenodd" d="M12 22.5C17.799 22.5 22.5 17.799 22.5 12C22.5 6.201 17.799 1.5 12 1.5C6.201 1.5 1.5 6.201 1.5 12C1.5 17.799 6.201 22.5 12 22.5Z" fill="#FBFBFB"></path>
  <path d="M15 12C15 13.6568 13.6568 15 12 15C10.3432 15 9 13.6568 9 12C9 10.3432 10.3432 9 12 9C13.6568 9 15 10.3432 15 12Z" fill="#E92B2B"></path>
  <path d="M15 12C15 12.7957 14.6839 13.5587 14.1213 14.1213C13.5587 14.6839 12.7957 15 12 15C11.2043 15 10.4413 14.6839 9.87867 14.1213C9.31608 13.5587 9 12.7957 9 12H12H15Z" fill="#2A2FAF"></path>
  <path d="M8.61902 7.90448L7.97739 7.52344L6.32275 10.4713L6.96438 10.8523L8.61902 7.90448Z" fill="#1D1D1D"></path>
  <path d="M6.0528 6.38002L5.41118 5.99902L3.74365 8.96977L4.38529 9.35082L6.0528 6.38002Z" fill="#1D1D1D"></path>
  <path d="M7.33598 7.14179L6.69436 6.76074L5.02734 9.7306L5.66897 10.1116L7.33598 7.14179Z" fill="#1D1D1D"></path>
  <path d="M15.375 7.90546L16.0166 7.52441L16.7575 8.84437L16.1159 9.22541L15.375 7.90546Z" fill="#1D1D1D"></path>
  <path d="M17.9414 6.38105L18.583 6L19.3239 7.31995L18.6823 7.701L17.9414 6.38105Z" fill="#1D1D1D"></path>
  <path d="M16.6582 7.14272L17.2998 6.76172L18.9668 9.73153L18.3252 10.1126L16.6582 7.14272Z" fill="#1D1D1D"></path>
  <path d="M16.3008 9.55483L16.9424 9.17383L17.6833 10.4937L17.0417 10.8748L16.3008 9.55483Z" fill="#1D1D1D"></path>
  <path d="M18.8672 8.03144L19.5088 7.65039L20.2497 8.97034L19.6081 9.35134L18.8672 8.03144Z" fill="#1D1D1D"></path>
  <path d="M20.2502 15.0305L19.6086 14.6494L18.8677 15.9693L19.5093 16.3504L20.2502 15.0305Z" fill="#1D1D1D"></path>
  <path d="M17.6833 13.506L17.0417 13.125L16.3008 14.4449L16.9424 14.826L17.6833 13.506Z" fill="#1D1D1D"></path>
  <path d="M18.9668 14.2678L18.3252 13.8867L16.6582 16.8566L17.2998 17.2376L18.9668 14.2678Z" fill="#1D1D1D"></path>
  <path d="M19.3239 16.6799L18.6823 16.2988L17.9414 17.6188L18.583 17.9998L19.3239 16.6799Z" fill="#1D1D1D"></path>
  <path d="M16.7575 15.1564L16.1159 14.7754L15.375 16.0953L16.0166 16.4764L16.7575 15.1564Z" fill="#1D1D1D"></path>
  <path d="M3.75 15.0305L4.39163 14.6494L5.13253 15.9693L4.49089 16.3504L3.75 15.0305Z" fill="#1D1D1D"></path>
  <path d="M6.31641 13.506L6.95803 13.125L7.69894 14.4449L7.05731 14.826L6.31641 13.506Z" fill="#1D1D1D"></path>
  <path d="M5.0332 14.2678L5.67483 13.8867L7.34184 16.8566L6.70022 17.2376L5.0332 14.2678Z" fill="#1D1D1D"></path>
  <path d="M4.67578 16.6799L5.3174 16.2988L6.05831 17.6188L5.41668 17.9998L4.67578 16.6799Z" fill="#1D1D1D"></path>
  <path d="M7.24219 15.1564L7.88381 14.7754L8.62472 16.0953L7.98309 16.4764L7.24219 15.1564Z" fill="#1D1D1D"></path>
</svg>
