<?xml version="1.0" encoding="UTF-8"?>
<svg xmlns="http://www.w3.org/2000/svg" width="32" height="32" viewBox="0 0 32 32" fill="none">
  <path d="M19.8542 4.60033H12.1475C11.6142 4.60033 11.1875 4.17366 11.1875 3.64033C11.1875 3.10699 11.6142 2.66699 12.1475 2.66699H19.8542C20.3875 2.66699 20.8142 3.09366 20.8142 3.62699C20.8142 4.16033 20.3875 4.60033 19.8542 4.60033Z" fill="#E9A900"></path>
  <path d="M18.6681 26.6269V22.7069C18.6681 20.2935 20.2947 18.6669 22.7081 18.6669H26.6281C26.9347 18.6669 27.2281 18.6935 27.5081 18.7469C27.5347 18.4269 27.5614 18.1069 27.5614 17.7735C27.5614 11.3869 22.3747 6.2002 16.0014 6.2002C9.62807 6.2002 4.44141 11.3869 4.44141 17.7735C4.44141 24.1469 9.62807 29.3335 16.0014 29.3335C17.1347 29.3335 18.2147 29.1469 19.2547 28.8535C18.8814 28.2269 18.6681 27.4802 18.6681 26.6269ZM17.0014 17.3335C17.0014 17.8802 16.5481 18.3335 16.0014 18.3335C15.4547 18.3335 15.0014 17.8802 15.0014 17.3335V10.6669C15.0014 10.1202 15.4547 9.66686 16.0014 9.66686C16.5481 9.66686 17.0014 10.1202 17.0014 10.6669V17.3335Z" fill="#E9A900"></path>
  <path d="M26.6267 20H22.72C21.0133 20 20 21.0133 20 22.7067V26.6267C20 28.32 21.0133 29.3333 22.72 29.3333H26.6267C28.32 29.3333 29.3333 28.32 29.3333 26.6267V22.7067C29.3333 21.0133 28.32 20 26.6267 20ZM23.8933 26.7467C23.8933 27.1733 23.5467 27.52 23.1067 27.52C22.68 27.52 22.3333 27.1733 22.3333 26.7467V22.5867C22.3333 22.16 22.68 21.8133 23.1067 21.8133C23.5467 21.8133 23.8933 22.16 23.8933 22.5867V26.7467ZM27 26.7467C27 27.1733 26.6533 27.52 26.2267 27.52C25.8 27.52 25.44 27.1733 25.44 26.7467V22.5867C25.44 22.16 25.8 21.8133 26.2267 21.8133C26.6533 21.8133 27 22.16 27 22.5867V26.7467Z" fill="#E9A900"></path>
</svg>
