<?xml version="1.0" encoding="UTF-8"?>
<svg xmlns="http://www.w3.org/2000/svg" width="40" height="40" viewBox="0 0 40 40" fill="none">
  <g clip-path="url(#clip0_369_3234)">
    <path d="M-9.94141 0H50.0586V40H-9.94141V0Z" fill="white"></path>
    <path d="M-9.94141 0H50.0586V3.07602H-9.94141V0ZM-9.94141 6.15205H50.0586V9.22807H-9.94141V6.15205ZM-9.94141 12.3041H50.0586V15.3801H-9.94141V12.3041ZM-9.94141 18.4561H50.0586V21.5322H-9.94141V18.4561ZM-9.94141 24.6199H50.0586V27.6959H-9.94141V24.6199ZM-9.94141 30.7719H50.0586V33.848H-9.94141V30.7719ZM-9.94141 36.924H50.0586V40H-9.94141V36.924Z" fill="#D80027"></path>
    <path d="M-9.94141 0H20.0586V21.5322H-9.94141V0Z" fill="#2E52B2"></path>
    <path d="M-4.35088 16.2454L-4.81872 14.7483L-5.33334 16.2454H-6.8772L-5.62574 17.146L-6.09357 18.6431L-4.81872 17.7191L-3.57895 18.6431L-4.05848 17.146L-2.78363 16.2454H-4.35088ZM2.23391 16.2454L1.75438 14.7483L1.26315 16.2454H-0.280706L0.970757 17.146L0.50292 18.6431L1.75438 17.7191L3.01754 18.6431L2.5497 17.146L3.80117 16.2454H2.23391ZM8.8421 16.2454L8.33918 14.7483L7.87134 16.2454H6.29239L7.57894 17.146L7.08772 18.6431L8.33918 17.7191L9.62573 18.6431L9.1345 17.146L10.386 16.2454H8.8421ZM15.4152 16.2454L14.9474 14.7483L14.4561 16.2454H12.9006L14.1637 17.146L13.6959 18.6431L14.9474 17.7191L16.2105 18.6431L15.7076 17.146L16.9941 16.2454H15.4152ZM1.75438 8.8068L1.26315 10.3039H-0.280706L0.970757 11.2279L0.50292 12.7015L1.75438 11.7893L3.01754 12.7015L2.5497 11.2279L3.80117 10.3039H2.23391L1.75438 8.8068ZM-4.81872 8.8068L-5.33334 10.3039H-6.8772L-5.62574 11.2279L-6.09357 12.7015L-4.81872 11.7893L-3.57895 12.7015L-4.05848 11.2279L-2.78363 10.3039H-4.35088L-4.81872 8.8068ZM8.33918 8.8068L7.87134 10.3039H6.29239L7.57894 11.2279L7.08772 12.7015L8.33918 11.7893L9.62573 12.7015L9.1345 11.2279L10.386 10.3039H8.8421L8.33918 8.8068ZM14.9474 8.8068L14.4561 10.3039H12.9006L14.1637 11.2279L13.6959 12.7015L14.9474 11.7893L16.2105 12.7015L15.7076 11.2279L16.9941 10.3039H15.4152L14.9474 8.8068ZM-4.81872 2.88867L-5.33334 4.36236H-6.8772L-5.62574 5.28633L-6.09357 6.77171L-4.81872 5.84774L-3.57895 6.77171L-4.05848 5.28633L-2.78363 4.36236H-4.35088L-4.81872 2.88867ZM1.75438 2.88867L1.26315 4.36236H-0.280706L0.970757 5.28633L0.50292 6.77171L1.75438 5.84774L3.01754 6.77171L2.5497 5.28633L3.80117 4.36236H2.23391L1.75438 2.88867ZM8.33918 2.88867L7.87134 4.36236H6.29239L7.57894 5.28633L7.08772 6.77171L8.33918 5.84774L9.62573 6.77171L9.1345 5.28633L10.386 4.36236H8.8421L8.33918 2.88867ZM14.9474 2.88867L14.4561 4.36236H12.9006L14.1637 5.28633L13.6959 6.77171L14.9474 5.84774L16.2105 6.77171L15.7076 5.28633L16.9941 4.36236H15.4152L14.9474 2.88867Z" fill="white"></path>
  </g>
  <defs>
    <clipPath id="clip0_369_3234">
      <rect width="40" height="40" rx="20" fill="white"></rect>
    </clipPath>
  </defs>
</svg>
