<?xml version="1.0" encoding="UTF-8"?>
<svg xmlns="http://www.w3.org/2000/svg" width="32" height="32" viewBox="0 0 32 32" fill="none">
  <path d="M24 2.66699H8C5.78667 2.66699 4 4.44033 4 6.62699V21.1737C4 23.3603 5.78667 25.1337 8 25.1337H9.01333C10.08 25.1337 11.0933 25.547 11.84 26.2937L14.12 28.547C15.16 29.5737 16.8533 29.5737 17.8933 28.547L20.1733 26.2937C20.92 25.547 21.9467 25.1337 23 25.1337H24C26.2133 25.1337 28 23.3603 28 21.1737V6.62699C28 4.44033 26.2133 2.66699 24 2.66699ZM16 7.66699C17.72 7.66699 19.1067 9.05366 19.1067 10.7737C19.1067 12.4937 17.72 13.8803 16 13.8803C14.28 13.8803 12.8933 12.4803 12.8933 10.7737C12.8933 9.05366 14.28 7.66699 16 7.66699ZM19.5733 20.0803H12.4267C11.3467 20.0803 10.72 18.8803 11.32 17.987C12.2267 16.6403 13.9867 15.7337 16 15.7337C18.0133 15.7337 19.7733 16.6403 20.68 17.987C21.28 18.8803 20.64 20.0803 19.5733 20.0803Z" fill="#E9A900"></path>
</svg>
