<?xml version="1.0" encoding="UTF-8"?>
<svg xmlns="http://www.w3.org/2000/svg" width="32" height="32" viewBox="0 0 32 32" fill="none">
  <path d="M26.0145 7.80033L18.0945 3.22699C16.8012 2.48033 15.2012 2.48033 13.8945 3.22699L5.98786 7.80033C4.69453 8.54699 3.89453 9.93366 3.89453 11.4403V20.5603C3.89453 22.0537 4.69453 23.4403 5.98786 24.2003L13.9079 28.7737C15.2012 29.5203 16.8012 29.5203 18.1079 28.7737L26.0279 24.2003C27.3212 23.4537 28.1212 22.067 28.1212 20.5603V11.4403C28.1079 9.93366 27.3079 8.56033 26.0145 7.80033ZM15.0012 10.3337C15.0012 9.78699 15.4545 9.33366 16.0012 9.33366C16.5479 9.33366 17.0012 9.78699 17.0012 10.3337V17.3337C17.0012 17.8803 16.5479 18.3337 16.0012 18.3337C15.4545 18.3337 15.0012 17.8803 15.0012 17.3337V10.3337ZM17.2279 22.1737C17.1612 22.3337 17.0679 22.4803 16.9479 22.6137C16.6945 22.867 16.3612 23.0003 16.0012 23.0003C15.8279 23.0003 15.6545 22.9603 15.4945 22.8937C15.3212 22.827 15.1879 22.7337 15.0545 22.6137C14.9345 22.4803 14.8412 22.3337 14.7612 22.1737C14.6945 22.0137 14.6679 21.8403 14.6679 21.667C14.6679 21.3203 14.8012 20.9737 15.0545 20.7203C15.1879 20.6003 15.3212 20.507 15.4945 20.4403C15.9879 20.227 16.5745 20.347 16.9479 20.7203C17.0679 20.8537 17.1612 20.987 17.2279 21.1603C17.2945 21.3203 17.3345 21.4937 17.3345 21.667C17.3345 21.8403 17.2945 22.0137 17.2279 22.1737Z" fill="#E9A900"></path>
</svg>
