<?xml version="1.0" encoding="UTF-8"?>
<svg xmlns="http://www.w3.org/2000/svg" width="32" height="32" viewBox="0 0 32 32" fill="none">
  <path d="M21.3333 13H10.6667C9.74667 13 9 13.7467 9 14.6667V16.0667C9.04 16.0533 9.06667 16.04 9.10667 16.0267C9.26667 15.9467 9.44 15.8933 9.61333 15.84C9.69333 15.8133 9.77333 15.7867 9.86667 15.76C10.1333 15.7067 10.4 15.6667 10.68 15.6667H21.3467C21.6267 15.6667 21.8933 15.7067 22.16 15.76C22.24 15.7733 22.32 15.8133 22.4133 15.84C22.5867 15.8933 22.76 15.9467 22.92 16.0267C22.96 16.04 23 16.0533 23.0267 16.0667V14.6667C23 13.7467 22.2533 13 21.3333 13Z" fill="#E9A900"></path>
  <path d="M21.3333 17.6667H10.6667C9.74667 17.6667 9 18.4134 9 19.3334V20H12.6667C13.2133 20 13.6667 20.4534 13.6667 21C13.6667 22.28 14.72 23.3334 16 23.3334C17.28 23.3334 18.3333 22.28 18.3333 21C18.3333 20.4534 18.7867 20 19.3333 20H23V19.3334C23 18.4134 22.2533 17.6667 21.3333 17.6667Z" fill="#E9A900"></path>
  <path d="M21.3333 8.66669H10.6667C9.74667 8.66669 9 9.41335 9 10.3334V11.4134C9.50667 11.16 10.0667 11 10.6667 11H21.3333C21.9333 11 22.4933 11.16 23 11.4134V10.3334C23 9.41335 22.2533 8.66669 21.3333 8.66669Z" fill="#E9A900"></path>
  <path d="M21.588 2.66669H10.4146C5.5613 2.66669 2.66797 5.56002 2.66797 10.4134V21.5734C2.66797 26.44 5.5613 29.3334 10.4146 29.3334H21.5746C26.428 29.3334 29.3213 26.44 29.3213 21.5867V10.4134C29.3346 5.56002 26.4413 2.66669 21.588 2.66669ZM25.3346 22H24.0013H20.2146C19.7613 23.9067 18.0413 25.3334 16.0013 25.3334C13.9613 25.3334 12.2413 23.9067 11.788 22H8.0013H6.66797C6.1213 22 5.66797 21.5467 5.66797 21C5.66797 20.4534 6.1213 20 6.66797 20H7.0013V19.3334V18.6667V14.6667V10.3334C7.0013 8.30669 8.6413 6.66669 10.668 6.66669H21.3346C23.3613 6.66669 25.0013 8.30669 25.0013 10.3334V14.6667V18.6667V19.3334V20H25.3346C25.8813 20 26.3346 20.4534 26.3346 21C26.3346 21.5467 25.8813 22 25.3346 22Z" fill="#E9A900"></path>
</svg>
