<?xml version="1.0" encoding="UTF-8"?>
<svg xmlns="http://www.w3.org/2000/svg" width="32" height="32" viewBox="0 0 32 32" fill="none">
  <path d="M29.3346 25.3333V29.3333H2.66797V25.3333C2.66797 24.6 3.26797 24 4.0013 24H28.0013C28.7346 24 29.3346 24.6 29.3346 25.3333Z" fill="#E9A900" stroke="#E9A900" stroke-width="1.5" stroke-miterlimit="10" stroke-linecap="round" stroke-linejoin="round"></path>
  <path d="M9.33464 14.6667H6.66797V24H9.33464V14.6667Z" fill="#E9A900"></path>
  <path d="M14.6667 14.6667H12V24H14.6667V14.6667Z" fill="#E9A900"></path>
  <path d="M19.9987 14.6667H17.332V24H19.9987V14.6667Z" fill="#E9A900"></path>
  <path d="M25.3346 14.6667H22.668V24H25.3346V14.6667Z" fill="#E9A900"></path>
  <path d="M30.6654 30.3333H1.33203C0.785365 30.3333 0.332031 29.88 0.332031 29.3333C0.332031 28.7867 0.785365 28.3333 1.33203 28.3333H30.6654C31.212 28.3333 31.6654 28.7867 31.6654 29.3333C31.6654 29.88 31.212 30.3333 30.6654 30.3333Z" fill="#E9A900"></path>
  <path d="M28.4946 7.66667L16.4946 2.86667C16.228 2.76 15.7746 2.76 15.508 2.86667L3.50797 7.66667C3.0413 7.85333 2.66797 8.4 2.66797 8.90667V13.3333C2.66797 14.0667 3.26797 14.6667 4.0013 14.6667H28.0013C28.7346 14.6667 29.3346 14.0667 29.3346 13.3333V8.90667C29.3346 8.4 28.9613 7.85333 28.4946 7.66667ZM16.0013 11.3333C14.8946 11.3333 14.0013 10.44 14.0013 9.33333C14.0013 8.22667 14.8946 7.33333 16.0013 7.33333C17.108 7.33333 18.0013 8.22667 18.0013 9.33333C18.0013 10.44 17.108 11.3333 16.0013 11.3333Z" fill="#E9A900"></path>
</svg>
