<?xml version="1.0" encoding="UTF-8"?>
<svg xmlns="http://www.w3.org/2000/svg" width="32" height="32" viewBox="0 0 32 32" fill="none">
  <path d="M29.0785 5.25334C27.3318 9.61334 23.3452 15.3067 19.5452 19.0267C18.9985 15.5867 16.2518 12.8933 12.7852 12.4133C16.5185 8.60001 22.2518 4.56001 26.6252 2.80001C27.3985 2.50667 28.1718 2.73334 28.6518 3.21334C29.1585 3.72001 29.3985 4.48001 29.0785 5.25334Z" fill="#E9A900"></path>
  <path d="M18.3735 20.12C18.1068 20.3467 17.8402 20.5733 17.5735 20.7867L15.1868 22.6933C15.1868 22.6533 15.1735 22.6 15.1735 22.5467C14.9868 21.12 14.3202 19.8 13.2402 18.72C12.1468 17.6267 10.7868 16.96 9.29349 16.7733C9.25349 16.7733 9.20016 16.76 9.16016 16.76L11.0935 14.32C11.2802 14.08 11.4802 13.8533 11.6935 13.6133L12.6002 13.7333C15.4668 14.1333 17.7735 16.3867 18.2268 19.24L18.3735 20.12Z" fill="#E9A900"></path>
  <path d="M13.9077 23.4933C13.9077 24.96 13.3477 26.36 12.281 27.4133C11.4677 28.24 10.3743 28.8 9.04099 28.96L5.77432 29.32C3.98765 29.52 2.45432 27.9867 2.65432 26.1867L3.01432 22.9067C3.33432 19.9867 5.77432 18.12 8.36099 18.0667C8.61432 18.0533 8.89432 18.0667 9.16099 18.0933C10.2943 18.24 11.3877 18.76 12.3077 19.6667C13.201 20.56 13.7077 21.6133 13.8543 22.72C13.881 22.9867 13.9077 23.24 13.9077 23.4933Z" fill="#E9A900"></path>
</svg>
