<?xml version="1.0" encoding="UTF-8"?>
<svg xmlns="http://www.w3.org/2000/svg" width="32" height="32" viewBox="0 0 32 32" fill="none">
  <path d="M21.588 2.66666H10.4146C5.5613 2.66666 2.66797 5.55999 2.66797 10.4133V21.5733C2.66797 26.44 5.5613 29.3333 10.4146 29.3333H21.5746C26.428 29.3333 29.3213 26.44 29.3213 21.5867V10.4133C29.3346 5.55999 26.4413 2.66666 21.588 2.66666ZM12.148 22.5333C12.148 22.9067 11.8546 23.2 11.4813 23.2H7.7613C7.38797 23.2 7.09464 22.9067 7.09464 22.5333V16.3733C7.09464 15.5333 7.77464 14.8533 8.61464 14.8533H11.4813C11.8546 14.8533 12.148 15.1467 12.148 15.52V22.5333ZM18.5213 22.5333C18.5213 22.9067 18.228 23.2 17.8546 23.2H14.1346C13.7613 23.2 13.468 22.9067 13.468 22.5333V10.32C13.468 9.47999 14.148 8.79999 14.988 8.79999H17.0146C17.8546 8.79999 18.5346 9.47999 18.5346 10.32V22.5333H18.5213ZM24.908 22.5333C24.908 22.9067 24.6146 23.2 24.2413 23.2H20.5213C20.148 23.2 19.8546 22.9067 19.8546 22.5333V17.8C19.8546 17.4267 20.148 17.1333 20.5213 17.1333H23.388C24.228 17.1333 24.908 17.8133 24.908 18.6533V22.5333Z" fill="#E9A900"></path>
</svg>
