<?xml version="1.0" encoding="UTF-8"?>
<svg xmlns="http://www.w3.org/2000/svg" width="32" height="32" viewBox="0 0 32 32" fill="none">
  <path d="M6.66536 20C5.41203 20 4.25203 20.44 3.33203 21.1733C2.10536 22.1467 1.33203 23.6533 1.33203 25.3333C1.33203 26.3333 1.61203 27.28 2.10536 28.08C3.02536 29.6267 4.7187 30.6667 6.66536 30.6667C8.01203 30.6667 9.2387 30.1733 10.172 29.3333C10.5854 28.9867 10.9454 28.56 11.2254 28.08C11.7187 27.28 11.9987 26.3333 11.9987 25.3333C11.9987 22.3867 9.61203 20 6.66536 20ZM9.42537 24.76L6.58536 27.3867C6.3987 27.56 6.14536 27.6533 5.90536 27.6533C5.65203 27.6533 5.3987 27.56 5.1987 27.36L3.8787 26.04C3.49203 25.6533 3.49203 25.0133 3.8787 24.6267C4.26536 24.24 4.90536 24.24 5.29203 24.6267L5.93203 25.2667L8.06536 23.2933C8.46536 22.92 9.10536 22.9467 9.4787 23.3467C9.85203 23.7467 9.82537 24.3867 9.42537 24.76Z" fill="#E9A900"></path>
  <path d="M19.7987 5.26667V10.3333H17.7987V5.26667C17.7987 4.90667 17.4787 4.73334 17.2654 4.73334C17.1987 4.73334 17.132 4.74667 17.0654 4.77334L6.49203 8.76C5.78536 9.02667 5.33203 9.69334 5.33203 10.4533V11.3467C4.1187 12.2533 3.33203 13.7067 3.33203 15.3467V10.4533C3.33203 8.86667 4.30536 7.45334 5.78536 6.89334L16.372 2.89334C16.6654 2.78667 16.972 2.73334 17.2654 2.73334C18.5987 2.73334 19.7987 3.81334 19.7987 5.26667Z" fill="#E9A900"></path>
  <path d="M28.6663 19.3333V20.6667C28.6663 21.0267 28.3863 21.32 28.0129 21.3333H26.0663C25.3596 21.3333 24.7196 20.8133 24.6663 20.12C24.6263 19.7067 24.7863 19.32 25.0529 19.0533C25.2929 18.8 25.6263 18.6667 25.9863 18.6667H27.9996C28.3863 18.68 28.6663 18.9733 28.6663 19.3333Z" fill="#E9A900"></path>
  <path d="M25.972 17.2667H27.332C28.0654 17.2667 28.6654 16.6667 28.6654 15.9333V15.3467C28.6654 12.5867 26.412 10.3333 23.652 10.3333H8.34536C7.21203 10.3333 6.17203 10.7067 5.33203 11.3467C4.1187 12.2533 3.33203 13.7067 3.33203 15.3467V17.72C3.33203 18.2267 3.86536 18.5467 4.34536 18.3867C5.09203 18.1333 5.8787 18 6.66536 18C10.7054 18 13.9987 21.2933 13.9987 25.3333C13.9987 26.2933 13.7454 27.3467 13.3454 28.28C13.132 28.76 13.4654 29.3333 13.9854 29.3333H23.652C26.412 29.3333 28.6654 27.08 28.6654 24.32V24.0667C28.6654 23.3333 28.0654 22.7333 27.332 22.7333H26.172C24.892 22.7333 23.6654 21.9467 23.332 20.7067C23.0654 19.6933 23.3854 18.7067 24.052 18.0667C24.5454 17.56 25.2254 17.2667 25.972 17.2667ZM18.6654 17H11.9987C11.452 17 10.9987 16.5467 10.9987 16C10.9987 15.4533 11.452 15 11.9987 15H18.6654C19.212 15 19.6654 15.4533 19.6654 16C19.6654 16.5467 19.212 17 18.6654 17Z" fill="#E9A900"></path>
</svg>
