<?xml version="1.0" encoding="UTF-8"?>
<svg xmlns="http://www.w3.org/2000/svg" width="32" height="32" viewBox="0 0 32 32" fill="none">
  <path d="M16 20C18.2091 20 20 18.2091 20 16C20 13.7909 18.2091 12 16 12C13.7909 12 12 13.7909 12 16C12 18.2091 13.7909 20 16 20Z" fill="#E9A900"></path>
  <path d="M22.668 4.66667H9.33464C5.33464 4.66667 2.66797 6.66667 2.66797 11.3333V12V20V20.6667C2.66797 25.3333 5.33464 27.3333 9.33464 27.3333H22.668C26.668 27.3333 29.3346 25.3333 29.3346 20.6667V20V12V11.3333C29.3346 6.66667 26.668 4.66667 22.668 4.66667ZM9.33464 25.3333C9.33464 21.5733 8.1213 20.1867 4.66797 20.0267V20V12V11.9733C8.1213 11.8133 9.33464 10.4267 9.33464 6.66667H22.668C22.668 10.4267 23.8813 11.8133 27.3346 11.9733V12V20V20.0267C23.8813 20.1867 22.668 21.5733 22.668 25.3333H9.33464Z" fill="#E9A900"></path>
</svg>
