<svg width="24" height="24" viewBox="0 0 24 24" fill="none" xmlns="http://www.w3.org/2000/svg">
<path d="M12 2C17.52 2 22 6.48 22 12C22 17.52 17.52 22 12 22C6.48 22 2 17.52 2 12C2 6.48 6.48 2 12 2ZM7.97 12.53L10.97 15.53C11.12 15.68 11.31 15.75 11.5 15.75C11.69 15.75 11.88 15.68 12.03 15.53C12.32 15.24 12.32 14.76 12.03 14.47L10.31 12.75H15.5C15.91 12.75 16.25 12.41 16.25 12C16.25 11.59 15.91 11.25 15.5 11.25H10.31L12.03 9.53C12.32 9.24 12.32 8.76 12.03 8.47C11.74 8.18 11.26 8.18 10.97 8.47L7.97 11.47C7.68 11.76 7.68 12.24 7.97 12.53Z" fill="currentColor"/>
</svg>
