<svg width="24" height="24" viewBox="0 0 24 24" fill="none" xmlns="http://www.w3.org/2000/svg">
<path fill-rule="evenodd" clip-rule="evenodd" d="M12 1.5C6.201 1.5 1.5 6.201 1.5 12C1.5 17.799 6.201 22.5 12 22.5C17.799 22.5 22.5 17.799 22.5 12C22.5 6.201 17.799 1.5 12 1.5Z" fill="#E92B2B"/>
<path fill-rule="evenodd" clip-rule="evenodd" d="M21.0953 17.25H2.90479C3.47635 18.2381 4.2043 19.1243 5.05476 19.875H18.9454C19.7958 19.1243 20.5238 18.2381 21.0953 17.25Z" fill="#FBFBFB"/>
<path fill-rule="evenodd" clip-rule="evenodd" d="M22.5 12H1.5C1.5 12.9064 1.61485 13.786 1.8308 14.625H22.1692C22.3852 13.786 22.5 12.9064 22.5 12Z" fill="#FBFBFB"/>
<path fill-rule="evenodd" clip-rule="evenodd" d="M21.0955 6.75H2.90497C2.43499 7.56244 2.07075 8.44373 1.83105 9.375H22.1695C21.9298 8.44373 21.5655 7.56244 21.0955 6.75Z" fill="#FBFBFB"/>
<path fill-rule="evenodd" clip-rule="evenodd" d="M18.9443 4.125H5.05371C6.90471 2.49129 9.33612 1.5 11.999 1.5C14.662 1.5 17.0933 2.49129 18.9443 4.125Z" fill="#FBFBFB"/>
<path fill-rule="evenodd" clip-rule="evenodd" d="M10.9503 1.55176V11.9999H1.5C1.5 6.55522 5.64417 2.07843 10.9503 1.55176Z" fill="#2A2FAF"/>
<path fill-rule="evenodd" clip-rule="evenodd" d="M3.10115 6.42578H3.54938L2.9322 6.87419L3.16794 7.59972L2.64844 7.22228C2.78799 6.94966 2.93911 6.68397 3.10115 6.42578Z" fill="#FBFBFB"/>
<path fill-rule="evenodd" clip-rule="evenodd" d="M1.74902 9.71844C1.75964 9.67053 1.77057 9.62277 1.78184 9.57514H2.31464L2.55038 8.84961L2.78612 9.57514H3.54899L2.93182 10.0235L3.16755 10.7491L2.55038 10.3007L1.93321 10.7491L2.16895 10.0235L1.74902 9.71844Z" fill="#FBFBFB"/>
<path fill-rule="evenodd" clip-rule="evenodd" d="M5.24037 3.96499C5.53235 3.71907 5.83798 3.48877 6.15588 3.27539H6.69879L6.08159 3.72379L6.31732 4.44933L5.70016 4.00092L5.08301 4.44933L5.24037 3.96499Z" fill="#FBFBFB"/>
<path d="M5.70077 5.7002L5.93651 6.42573H6.6994L6.0822 6.87413L6.31798 7.59966L5.70077 7.15126L5.08362 7.59966L5.31935 6.87413L4.70215 6.42573H5.46504L5.70077 5.7002Z" fill="#FBFBFB"/>
<path d="M5.70077 8.84961L5.93651 9.57514H6.6994L6.0822 10.0235L6.31798 10.7491L5.70077 10.3007L5.08362 10.7491L5.31935 10.0235L4.70215 9.57514H5.46504L5.70077 8.84961Z" fill="#FBFBFB"/>
<path d="M8.85019 2.5498L9.08592 3.27534H9.84877L9.23161 3.72374L9.46734 4.44927L8.85019 4.00087L8.23298 4.44927L8.46872 3.72374L7.85156 3.27534H8.61445L8.85019 2.5498Z" fill="#FBFBFB"/>
<path d="M8.85019 5.7002L9.08592 6.42573H9.84877L9.23161 6.87413L9.46734 7.59966L8.85019 7.15126L8.23298 7.59966L8.46872 6.87413L7.85156 6.42573H8.61445L8.85019 5.7002Z" fill="#FBFBFB"/>
<path d="M8.85019 8.84961L9.08592 9.57514H9.84877L9.23161 10.0235L9.46734 10.7491L8.85019 10.3007L8.23298 10.7491L8.46872 10.0235L7.85156 9.57514H8.61445L8.85019 8.84961Z" fill="#FBFBFB"/>
</svg>
