<svg width="24" height="24" viewBox="0 0 24 24" fill="none" xmlns="http://www.w3.org/2000/svg">
<path d="M20.9136 6.61058L20.9135 6.61066L20.9221 6.61502C21.065 6.68822 21.2663 6.82873 21.4334 7.08818C21.5989 7.34535 21.75 7.74887 21.75 8.38V15.62C21.75 16.2511 21.5989 16.6547 21.4334 16.9118C21.2663 17.1713 21.065 17.3118 20.9221 17.385L20.922 17.385L20.9171 17.3875C20.7786 17.4604 20.5687 17.54 20.3 17.54C19.9855 17.54 19.545 17.4395 18.9994 17.0522L18.9988 17.0518L17.5288 16.0118L16.773 15.4771L16.7403 16.4023C16.6873 17.9006 16.3382 18.8201 15.722 19.3817C15.0987 19.9497 14.0958 20.25 12.5 20.25H6.5C4.87797 20.25 3.83927 19.6886 3.19661 18.9174C2.54107 18.1308 2.25 17.0678 2.25 16V8C2.25 6.3359 2.57714 5.31497 3.19605 4.69605C3.81497 4.07714 4.8359 3.75 6.5 3.75H12.5C14.0958 3.75 15.0987 4.05028 15.722 4.61831C16.3382 5.17987 16.6873 6.09939 16.7403 7.59767L16.773 8.52285L17.5288 7.98818L18.997 6.94945C18.9973 6.94923 18.9976 6.94901 18.9979 6.9488C19.5147 6.58679 19.9312 6.47749 20.2362 6.46455C20.5437 6.4515 20.7729 6.53507 20.9136 6.61058ZM8.62 9.5C8.62 10.8179 9.69559 11.88 11 11.88C12.3044 11.88 13.38 10.8179 13.38 9.5C13.38 8.18213 12.3044 7.12 11 7.12C9.69559 7.12 8.62 8.18213 8.62 9.5Z" fill="currentColor" stroke="currentColor"/>
</svg>
