<?xml version="1.0" encoding="utf-8"?><svg viewBox="0 0 24 25" xmlns="http://www.w3.org/2000/svg" xmlns:xlink="http://www.w3.org/1999/xlink"><style>:root>svg{display:none}:root>svg:target{display:block}</style><svg fill="none" viewBox="0 0 20 20" id="arrow-down" xmlns="http://www.w3.org/2000/svg"><path d="M2.694 8.132l5.434 5.433 1.414-1.414-5.433-5.433-1.415 1.414zm5.434 5.433a2.655 2.655 0 003.747 0l-1.414-1.414a.655.655 0 01-.919 0l-1.414 1.414zm3.747 0l5.434-5.433-1.415-1.414-5.433 5.433 1.414 1.414z" fill="currentColor"/></svg><svg fill="none" viewBox="0 0 16 16" id="arrow-left" xmlns="http://www.w3.org/2000/svg"><path d="M10.06 13.279L5.713 8.932a1.324 1.324 0 010-1.867L10.06 2.72" stroke="currentColor" stroke-miterlimit="10" stroke-linecap="round" stroke-linejoin="round"/></svg><svg fill="none" viewBox="0 0 20 20" id="arrow-narrow-up" xmlns="http://www.w3.org/2000/svg"><path d="M10 16.667V3.333m0 0l-5 5m5-5l5 5" stroke="currentColor" stroke-linecap="round" stroke-linejoin="round"/></svg><svg fill="none" viewBox="0 0 24 24" id="arrow-next" xmlns="http://www.w3.org/2000/svg"><path d="M12 2C6.48 2 2 6.48 2 12s4.48 10 10 10 10-4.48 10-10S17.52 2 12 2zm4.03 10.53l-3 3c-.15.15-.34.22-.53.22s-.38-.07-.53-.22a.754.754 0 010-1.06l1.72-1.72H8.5c-.41 0-.75-.34-.75-.75s.34-.75.75-.75h5.19l-1.72-1.72a.754.754 0 010-1.06c.29-.29.77-.29 1.06 0l3 3c.29.29.29.77 0 1.06z" fill="currentColor"/></svg><svg fill="none" viewBox="0 0 24 24" id="arrow-prev" xmlns="http://www.w3.org/2000/svg"><path d="M12 2c5.52 0 10 4.48 10 10s-4.48 10-10 10S2 17.52 2 12 6.48 2 12 2zM7.97 12.53l3 3c.15.15.34.22.53.22s.38-.07.53-.22c.29-.29.29-.77 0-1.06l-1.72-1.72h5.19c.41 0 .75-.34.75-.75s-.34-.75-.75-.75h-5.19l1.72-1.72c.29-.29.29-.77 0-1.06a.754.754 0 00-1.06 0l-3 3c-.29.29-.29.77 0 1.06z" fill="currentColor"/></svg><svg fill="none" viewBox="0 0 16 16" id="arrow-right" xmlns="http://www.w3.org/2000/svg"><path d="M5.94 13.279l4.347-4.347a1.324 1.324 0 000-1.867L5.94 2.72" stroke="currentColor" stroke-miterlimit="10" stroke-linecap="round" stroke-linejoin="round"/></svg><svg fill="none" viewBox="0 0 24 24" id="british" xmlns="http://www.w3.org/2000/svg"><g clip-path="url(#gclip0_631_16820)"><mask id="ga" style="mask-type:luminance" maskUnits="userSpaceOnUse" x="0" y="0" width="24" height="24"><path d="M23.248 12A11.251 11.251 0 11.745 12a11.251 11.251 0 0122.503 0z" fill="#fff"/></mask><g mask="url(#ga)"><mask id="gb" style="mask-type:luminance" maskUnits="userSpaceOnUse" x="0" y="0" width="24" height="24"><path d="M.75.75h22.5v22.5H.75V.75z" fill="#fff"/></mask><g mask="url(#gb)"><path d="M.75.75h22.5v22.5H.75V.75z" fill="#2B4896"/><path d="M10.696 10.72L-1.335 24.064h2.356v.746l11.298-12.677-1.623-1.413z" fill="#fff"/><path d="M-.599 25.822l11.633-12.956-.886.087v-.04L-1.141 25.33l.542.492z" fill="#E32D3C"/><path d="M23.193-.858l-12.03 13.344h2.355v.746L24.863.649l-1.67-1.507z" fill="#fff"/><path d="M23.684-.68L11.988 12.187h.95v.041L24.226-.188l-.542-.493z" fill="#E32D3C"/><path d="M10.04 13.596L-1.287-.174l2.335.107.033-.74 10.682 12.984-1.723 1.419z" fill="#fff"/><path d="M10.537 13.446L-.477.161l.94.043.003-.04 10.63 12.818-.559.464z" fill="#E32D3C"/><path d="M10.125.75h3.75v22.5h-3.75V.75z" fill="#fff"/><path d="M13.805 11.16l12.03 13.345H23.48v.745L12.135 12.668l1.67-1.508z" fill="#fff"/><path d="M13.314 11.338l11.695 12.868h-.949v.042L12.772 11.83l.542-.492z" fill="#E32D3C"/><path d="M23.25 10.125v3.75H.75v-3.75h22.5z" fill="#fff"/><path d="M10.875.75h2.25v22.5h-2.25V.75z" fill="#E32D3C"/><path d="M23.25 10.875v2.25H.75v-2.25h22.5z" fill="#E32D3C"/></g></g></g><defs><clipPath id="gclip0_631_16820"><path fill="#fff" d="M0 0h24v24H0z"/></clipPath></defs></svg><svg fill="none" viewBox="0 0 24 24" id="canada" xmlns="http://www.w3.org/2000/svg"><path fill-rule="evenodd" clip-rule="evenodd" d="M22.5 12c0-5.799-4.701-10.5-10.5-10.5S1.5 6.201 1.5 12 6.201 22.5 12 22.5 22.5 17.799 22.5 12z" fill="#E92B2B"/><path fill-rule="evenodd" clip-rule="evenodd" d="M16.875 2.698A10.454 10.454 0 0012 1.5c-1.76 0-3.418.433-4.875 1.198v18.604A10.454 10.454 0 0012 22.5c1.76 0 3.418-.433 4.875-1.198V2.698z" fill="#FBFBFB"/><path fill-rule="evenodd" clip-rule="evenodd" d="M11.387 15.75a.075.075 0 01-.075-.075v-1.239a.075.075 0 00-.075-.075H9.554a.075.075 0 01-.064-.114l.664-1.107a.075.075 0 00-.03-.105L8.06 11.957a.075.075 0 01.019-.14l1.015-.218a.075.075 0 00.058-.087l-.212-1.142a.075.075 0 01.115-.076l1.728 1.164c.06.04.136-.02.113-.087l-.653-1.876a.075.075 0 01.09-.097l.838.226a.075.075 0 00.085-.036l.68-1.22a.075.075 0 01.13 0l.68 1.22c.016.03.052.045.085.036l.837-.226c.059-.016.11.04.09.097l-.652 1.876a.075.075 0 00.113.087l1.727-1.164a.075.075 0 01.116.076l-.212 1.142a.075.075 0 00.058.087l1.015.218a.075.075 0 01.019.14l-2.066 1.078a.075.075 0 00-.03.105l.665 1.107a.075.075 0 01-.065.114h-1.683a.075.075 0 00-.075.075v1.239a.075.075 0 01-.075.075h-1.225z" fill="#E92B2B"/></svg><svg fill="none" viewBox="0 0 24 24" id="export" xmlns="http://www.w3.org/2000/svg"><path d="M16.19 2H7.81C4.17 2 2 4.17 2 7.81v8.37C2 19.83 4.17 22 7.81 22h8.37c3.64 0 5.81-2.17 5.81-5.81V7.81C22 4.17 19.83 2 16.19 2zm1.06 10.33c0 .41-.34.75-.75.75s-.75-.34-.75-.75V9.31l-7.72 7.72c-.15.15-.34.22-.53.22s-.38-.07-.53-.22a.754.754 0 010-1.06l7.72-7.72h-3.02c-.41 0-.75-.34-.75-.75s.34-.75.75-.75h4.83c.41 0 .75.34.75.75v4.83z" fill="currentColor"/></svg><svg fill="none" viewBox="0 0 20 20" id="link" xmlns="http://www.w3.org/2000/svg"><path d="M14.19 0H5.81C2.17 0 0 2.17 0 5.81v8.37C0 17.83 2.17 20 5.81 20h8.37c3.64 0 5.81-2.17 5.81-5.81V5.81C20 2.17 17.83 0 14.19 0zm2.34 10.53l-4.29 4.29c-.15.15-.34.22-.53.22s-.38-.07-.53-.22a.754.754 0 010-1.06l3.01-3.01H4c-.41 0-.75-.34-.75-.75s.34-.75.75-.75h10.19l-3.01-3.01a.754.754 0 010-1.06c.29-.29.77-.29 1.06 0l4.29 4.29a.75.75 0 010 1.06z" fill="currentColor"/></svg><svg fill="none" viewBox="0 0 24 25" id="location" xmlns="http://www.w3.org/2000/svg"><path d="M20.62 8.95c-1.05-4.62-5.08-6.7-8.62-6.7h-.01c-3.53 0-7.57 2.07-8.62 6.69-1.17 5.16 1.99 9.53 4.85 12.28A5.436 5.436 0 0012 22.75c1.36 0 2.72-.51 3.77-1.53 2.86-2.75 6.02-7.11 4.85-12.27zM12 13.96a3.15 3.15 0 110-6.3 3.15 3.15 0 010 6.3z" fill="currentColor"/></svg><svg fill="none" viewBox="0 0 24 24" id="sms" xmlns="http://www.w3.org/2000/svg"><path d="M17 3.5H7c-3 0-5 1.5-5 5v7c0 3.5 2 5 5 5h10c3 0 5-1.5 5-5v-7c0-3.5-2-5-5-5zm.47 6.09l-3.13 2.5c-.66.53-1.5.79-2.34.79-.84 0-1.69-.26-2.34-.79l-3.13-2.5a.77.77 0 01-.12-1.06c.26-.32.73-.38 1.05-.12l3.13 2.5c.76.61 2.05.61 2.81 0l3.13-2.5c.32-.26.8-.21 1.05.12.26.32.21.8-.11 1.06z" fill="currentColor"/></svg><svg fill="none" viewBox="0 0 24 24" id="south-korea" xmlns="http://www.w3.org/2000/svg"><path fill-rule="evenodd" clip-rule="evenodd" d="M12 22.5c5.799 0 10.5-4.701 10.5-10.5S17.799 1.5 12 1.5 1.5 6.201 1.5 12 6.201 22.5 12 22.5z" fill="#FBFBFB"/><path d="M15 12a3 3 0 11-6 0 3 3 0 016 0z" fill="#E92B2B"/><path d="M15 12a3 3 0 01-6 0h6z" fill="#2A2FAF"/><path d="M8.619 7.904l-.642-.38-1.654 2.947.641.381L8.62 7.904zM6.053 6.38l-.642-.381-1.667 2.97.641.382L6.053 6.38zM7.336 7.142l-.642-.381-1.667 2.97.642.38 1.667-2.97zM15.375 7.905l.642-.38.74 1.32-.641.38-.741-1.32zM17.941 6.381L18.583 6l.74 1.32-.64.381-.742-1.32zM16.658 7.143l.642-.381 1.667 2.97-.642.38-1.667-2.97zM16.3 9.555l.642-.381.741 1.32-.641.38-.741-1.32zM18.867 8.031l.642-.38.74 1.32-.64.38-.742-1.32zM20.25 15.03l-.641-.38-.741 1.32.641.38.741-1.32zM17.683 13.506l-.641-.381-.741 1.32.641.381.741-1.32zM18.967 14.268l-.642-.381-1.667 2.97.642.38 1.667-2.97zM19.324 16.68l-.642-.381-.74 1.32.641.38.74-1.32zM16.758 15.156l-.642-.38-.741 1.32.642.38.74-1.32zM3.75 15.03l.642-.38.74 1.32-.641.38-.741-1.32zM6.316 13.506l.642-.381.74 1.32-.64.381-.742-1.32zM5.033 14.268l.642-.381 1.667 2.97-.642.38-1.667-2.97zM4.676 16.68l.641-.381.741 1.32-.641.38-.741-1.32zM7.242 15.156l.642-.38.74 1.32-.64.38-.742-1.32z" fill="#1D1D1D"/></svg><svg fill="none" viewBox="0 0 24 24" id="subtitle" xmlns="http://www.w3.org/2000/svg"><path d="M16.19 2H7.81C4.17 2 2 4.17 2 7.81v8.37C2 19.83 4.17 22 7.81 22h8.37c3.64 0 5.81-2.17 5.81-5.81V7.81C22 4.17 19.83 2 16.19 2zM6.5 12.57h2.77c.41 0 .75.34.75.75s-.34.75-.75.75H6.5c-.41 0-.75-.34-.75-.75s.34-.75.75-.75zm6.47 5.26H6.5c-.41 0-.75-.34-.75-.75s.34-.75.75-.75h6.47a.749.749 0 110 1.5zm4.53 0h-1.85c-.41 0-.75-.34-.75-.75s.34-.75.75-.75h1.85c.41 0 .75.34.75.75s-.34.75-.75.75zm0-3.76h-5.53c-.41 0-.75-.34-.75-.75s.34-.75.75-.75h5.53c.41 0 .75.34.75.75s-.34.75-.75.75z" fill="currentColor"/></svg><svg fill="none" viewBox="0 0 24 24" id="ukraine" xmlns="http://www.w3.org/2000/svg"><path d="M12.001 22.665C6.111 22.665 1.335 17.89 1.335 12S6.11 1.332 12 1.332s10.667 4.776 10.667 10.667c0 5.89-4.776 10.666-10.667 10.666z" fill="#348AF4"/><path d="M1.335 12c0 5.891 4.775 10.667 10.666 10.667S22.668 17.89 22.668 12H1.335z" fill="#FFDB44"/></svg><svg fill="none" viewBox="0 0 24 24" id="usa" xmlns="http://www.w3.org/2000/svg"><path fill-rule="evenodd" clip-rule="evenodd" d="M12 1.5C6.201 1.5 1.5 6.201 1.5 12S6.201 22.5 12 22.5 22.5 17.799 22.5 12 17.799 1.5 12 1.5z" fill="#E92B2B"/><path fill-rule="evenodd" clip-rule="evenodd" d="M21.095 17.25H2.905c.571.988 1.3 1.874 2.15 2.625h13.89c.85-.75 1.579-1.637 2.15-2.625zM22.5 12h-21c0 .906.115 1.786.33 2.625h20.34c.215-.839.33-1.719.33-2.625zM21.096 6.75H2.905c-.47.812-.834 1.694-1.074 2.625H22.17a10.435 10.435 0 00-1.073-2.625zM18.944 4.125H5.054A10.46 10.46 0 0111.999 1.5c2.663 0 5.094.991 6.945 2.625z" fill="#FBFBFB"/><path fill-rule="evenodd" clip-rule="evenodd" d="M10.95 1.552V12H1.5c0-5.445 4.144-9.922 9.45-10.448z" fill="#2A2FAF"/><path fill-rule="evenodd" clip-rule="evenodd" d="M3.101 6.426h.448l-.617.448.236.726-.52-.378c.14-.272.291-.538.453-.796zM1.749 9.718l.033-.143h.533l.235-.725.236.725h.763l-.617.449.236.725-.618-.448-.617.448.236-.726-.42-.305zM5.24 3.965c.292-.246.598-.476.916-.69h.543l-.617.449.235.725-.617-.448-.617.448.157-.484z" fill="#FBFBFB"/><path d="M5.7 5.7l.237.726h.762l-.617.448.236.726-.617-.449-.617.449.235-.726-.617-.448h.763l.236-.726zM5.7 8.85l.237.725h.762l-.617.449.236.725-.617-.448-.617.448.235-.726-.617-.448h.763l.236-.725zM8.85 2.55l.236.725h.763l-.617.449.235.725-.617-.448-.617.448.236-.725-.617-.449h.762l.236-.725zM8.85 5.7l.236.726h.763l-.617.448.235.726-.617-.449-.617.449.236-.726-.617-.448h.762L8.85 5.7zM8.85 8.85l.236.725h.763l-.617.449.235.725-.617-.448-.617.448.236-.726-.617-.448h.762l.236-.725z" fill="#FBFBFB"/></svg><svg fill="none" viewBox="0 0 24 24" id="user-tag" xmlns="http://www.w3.org/2000/svg"><path d="M18 2H6C4.34 2 3 3.33 3 4.97v10.91c0 1.64 1.34 2.97 3 2.97h.76c.8 0 1.56.31 2.12.87l1.71 1.69c.78.77 2.05.77 2.83 0l1.71-1.69c.56-.56 1.33-.87 2.12-.87H18c1.66 0 3-1.33 3-2.97V4.97C21 3.33 19.66 2 18 2zm-6 3.75c1.29 0 2.33 1.04 2.33 2.33s-1.04 2.33-2.33 2.33-2.33-1.05-2.33-2.33c0-1.29 1.04-2.33 2.33-2.33zm2.68 9.31H9.32c-.81 0-1.28-.9-.83-1.57.68-1.01 2-1.69 3.51-1.69 1.51 0 2.83.68 3.51 1.69.45.67-.03 1.57-.83 1.57z" fill="currentColor"/></svg><svg fill="none" viewBox="0 0 24 24" id="video" xmlns="http://www.w3.org/2000/svg"><path d="M20.914 6.61h0l.008.005c.143.073.344.214.511.473.166.257.317.66.317 1.292v7.24c0 .631-.151 1.035-.317 1.292-.167.26-.368.4-.51.473h-.001l-.005.002a1.318 1.318 0 01-.617.153c-.315 0-.755-.1-1.3-.488h-.001l-1.47-1.04-.756-.535-.033.925c-.053 1.499-.402 2.418-1.018 2.98-.623.568-1.626.868-3.222.868h-6c-1.622 0-2.66-.561-3.303-1.333-.656-.786-.947-1.85-.947-2.917V8c0-1.664.327-2.685.946-3.304.619-.619 1.64-.946 3.304-.946h6c1.596 0 2.599.3 3.222.868.616.562.965 1.481 1.018 2.98l.033.925.756-.535 1.468-1.039s0 0 0 0c.518-.362.934-.472 1.24-.484.307-.013.536.07.677.146zM8.62 9.5A2.384 2.384 0 0011 11.88a2.384 2.384 0 002.38-2.38A2.384 2.384 0 0011 7.12 2.384 2.384 0 008.62 9.5z" fill="currentColor" stroke="currentColor"/></svg></svg>