<?xml version="1.0" encoding="utf-8"?><svg viewBox="0 0 24 25" xmlns="http://www.w3.org/2000/svg" xmlns:xlink="http://www.w3.org/1999/xlink"><style>:root>svg{display:none}:root>svg:target{display:block}</style><svg fill="none" viewBox="0 0 16 16" id="arrow-left" xmlns="http://www.w3.org/2000/svg"><path d="M10.06 13.279L5.713 8.932a1.324 1.324 0 010-1.867L10.06 2.72" stroke="currentColor" stroke-miterlimit="10" stroke-linecap="round" stroke-linejoin="round"/></svg><svg fill="none" viewBox="0 0 20 20" id="arrow-narrow-up" xmlns="http://www.w3.org/2000/svg"><path d="M10 16.667V3.333m0 0l-5 5m5-5l5 5" stroke="currentColor" stroke-linecap="round" stroke-linejoin="round"/></svg><svg fill="none" viewBox="0 0 16 16" id="arrow-right" xmlns="http://www.w3.org/2000/svg"><path d="M5.94 13.279l4.347-4.347a1.324 1.324 0 000-1.867L5.94 2.72" stroke="currentColor" stroke-miterlimit="10" stroke-linecap="round" stroke-linejoin="round"/></svg><svg fill="none" viewBox="0 0 24 24" id="export" xmlns="http://www.w3.org/2000/svg"><path d="M16.19 2H7.81C4.17 2 2 4.17 2 7.81v8.37C2 19.83 4.17 22 7.81 22h8.37c3.64 0 5.81-2.17 5.81-5.81V7.81C22 4.17 19.83 2 16.19 2zm1.06 10.33c0 .41-.34.75-.75.75s-.75-.34-.75-.75V9.31l-7.72 7.72c-.15.15-.34.22-.53.22s-.38-.07-.53-.22a.754.754 0 010-1.06l7.72-7.72h-3.02c-.41 0-.75-.34-.75-.75s.34-.75.75-.75h4.83c.41 0 .75.34.75.75v4.83z" fill="currentColor"/></svg><svg fill="none" viewBox="0 0 24 25" id="location" xmlns="http://www.w3.org/2000/svg"><path d="M20.62 8.95c-1.05-4.62-5.08-6.7-8.62-6.7h-.01c-3.53 0-7.57 2.07-8.62 6.69-1.17 5.16 1.99 9.53 4.85 12.28A5.436 5.436 0 0012 22.75c1.36 0 2.72-.51 3.77-1.53 2.86-2.75 6.02-7.11 4.85-12.27zM12 13.96a3.15 3.15 0 110-6.3 3.15 3.15 0 010 6.3z" fill="currentColor"/></svg><svg fill="none" viewBox="0 0 24 24" id="user-tag" xmlns="http://www.w3.org/2000/svg"><path d="M18 2H6C4.34 2 3 3.33 3 4.97v10.91c0 1.64 1.34 2.97 3 2.97h.76c.8 0 1.56.31 2.12.87l1.71 1.69c.78.77 2.05.77 2.83 0l1.71-1.69c.56-.56 1.33-.87 2.12-.87H18c1.66 0 3-1.33 3-2.97V4.97C21 3.33 19.66 2 18 2zm-6 3.75c1.29 0 2.33 1.04 2.33 2.33s-1.04 2.33-2.33 2.33-2.33-1.05-2.33-2.33c0-1.29 1.04-2.33 2.33-2.33zm2.68 9.31H9.32c-.81 0-1.28-.9-.83-1.57.68-1.01 2-1.69 3.51-1.69 1.51 0 2.83.68 3.51 1.69.45.67-.03 1.57-.83 1.57z" fill="currentColor"/></svg><svg fill="none" viewBox="0 0 24 24" id="video" xmlns="http://www.w3.org/2000/svg"><path d="M20.914 6.61h0l.008.005c.143.073.344.214.511.473.166.257.317.66.317 1.292v7.24c0 .631-.151 1.035-.317 1.292-.167.26-.368.4-.51.473h-.001l-.005.002a1.318 1.318 0 01-.617.153c-.315 0-.755-.1-1.3-.488h-.001l-1.47-1.04-.756-.535-.033.925c-.053 1.499-.402 2.418-1.018 2.98-.623.568-1.626.868-3.222.868h-6c-1.622 0-2.66-.561-3.303-1.333-.656-.786-.947-1.85-.947-2.917V8c0-1.664.327-2.685.946-3.304.619-.619 1.64-.946 3.304-.946h6c1.596 0 2.599.3 3.222.868.616.562.965 1.481 1.018 2.98l.033.925.756-.535 1.468-1.039s0 0 0 0c.518-.362.934-.472 1.24-.484.307-.013.536.07.677.146zM8.62 9.5A2.384 2.384 0 0011 11.88a2.384 2.384 0 002.38-2.38A2.384 2.384 0 0011 7.12 2.384 2.384 0 008.62 9.5z" fill="currentColor" stroke="currentColor"/></svg></svg>